<svg width="25" height="25" viewBox="0 0 25 25" fill="none" xmlns="http://www.w3.org/2000/svg">
<g filter="url(#filter0_d_6_70)">
<circle cx="13" cy="14" r="7.25" stroke="#334155" stroke-width="1.5"/>
<path fill-rule="evenodd" clip-rule="evenodd" d="M14.9708 11.4474C14.4203 12.0328 13.786 12.5395 13.0873 12.9522C13.0437 12.9831 12.9913 13.0005 12.9372 13.002C12.8831 13.0035 12.8298 12.9891 12.7844 12.9606C11.7879 12.3541 10.9032 11.5914 10.1667 10.704C9.21313 9.54918 8.60607 8.26687 8.40039 7.03148C8.19472 5.79609 8.38668 4.57514 9.03238 3.59597C9.29477 3.19758 9.62471 2.84462 10.0084 2.55184C10.9184 1.85054 11.9555 1.48245 12.9951 1.48967C13.7195 1.50889 14.4275 1.7025 15.0547 2.05291C15.6819 2.40332 16.2084 2.89942 16.5863 3.49612C17.2806 4.5992 17.4302 6.0066 17.1261 7.43205C16.7886 8.92991 16.0448 10.3144 14.9708 11.4438V11.4474ZM12.7981 3.71626C13.239 3.71626 13.67 3.84243 14.0365 4.07882C14.4031 4.3152 14.6887 4.65119 14.8574 5.04426C15.026 5.43734 15.0701 5.86986 14.984 6.28711C14.8979 6.70436 14.6855 7.08759 14.3737 7.38834C14.0619 7.68909 13.6646 7.89384 13.2322 7.97669C12.7998 8.05954 12.3516 8.01678 11.9444 7.85381C11.5371 7.69083 11.1891 7.41497 10.9444 7.06111C10.6996 6.70726 10.5691 6.2913 10.5693 5.86586C10.5693 5.58347 10.627 5.30385 10.739 5.04297C10.851 4.78209 11.0152 4.54506 11.2222 4.34544C11.4292 4.14581 11.6749 3.9875 11.9453 3.87954C12.2157 3.77158 12.5055 3.7161 12.7981 3.71626Z" fill="#EF4136"/>
<path d="M12.7981 3.71626C13.239 3.71626 13.67 3.84243 14.0365 4.07882C14.4031 4.3152 14.6887 4.65119 14.8574 5.04426C15.026 5.43734 15.0701 5.86986 14.984 6.28711C14.8979 6.70436 14.6855 7.08759 14.3737 7.38834C14.0619 7.68909 13.6646 7.89384 13.2322 7.97669C12.7998 8.05954 12.3516 8.01678 11.9444 7.85381C11.5371 7.69083 11.1891 7.41497 10.9444 7.06111C10.6996 6.70726 10.5691 6.2913 10.5693 5.86586C10.5693 5.58347 10.627 5.30385 10.739 5.04297C10.851 4.78209 11.0152 4.54506 11.2222 4.34544C11.4292 4.14581 11.6749 3.9875 11.9453 3.87954C12.2157 3.77158 12.5055 3.7161 12.7981 3.71626Z" fill="white"/>
<path fill-rule="evenodd" clip-rule="evenodd" d="M7.15489 19.9604C6.76162 20.3506 6.30862 20.6885 5.80953 20.9636C5.77836 20.9842 5.74097 20.9958 5.70232 20.9968C5.66368 20.9978 5.62561 20.9882 5.59317 20.9692C4.88138 20.5649 4.24944 20.0564 3.72338 19.4648C3.04224 18.6949 2.60863 17.84 2.46172 17.0165C2.31481 16.1929 2.45193 15.3789 2.91314 14.7261C3.10056 14.4605 3.33623 14.2252 3.6103 14.03C4.26028 13.5625 5.00107 13.3171 5.74364 13.3219C6.2611 13.3347 6.7668 13.4638 7.21478 13.6974C7.66277 13.931 8.03884 14.2617 8.30882 14.6595C8.80476 15.3949 8.9116 16.3332 8.69435 17.2835C8.45328 18.2821 7.92201 19.205 7.15489 19.958V19.9604ZM5.60297 14.8063C5.91787 14.8063 6.2257 14.8904 6.48752 15.048C6.74934 15.2056 6.95339 15.4296 7.07386 15.6916C7.19433 15.9537 7.2258 16.242 7.1643 16.5202C7.1028 16.7984 6.95109 17.0539 6.72836 17.2544C6.50562 17.4549 6.22188 17.5914 5.913 17.6466C5.60413 17.7018 5.284 17.6733 4.99312 17.5647C4.70224 17.456 4.45366 17.2721 4.27884 17.0362C4.10402 16.8003 4.0108 16.523 4.01097 16.2394C4.01097 16.0511 4.05216 15.8647 4.13217 15.6908C4.21219 15.5169 4.32947 15.3588 4.47731 15.2258C4.62515 15.0927 4.80066 14.9871 4.9938 14.9152C5.18695 14.8432 5.39394 14.8062 5.60297 14.8063Z" fill="#EF4136"/>
<path d="M5.60297 14.8063C5.91787 14.8063 6.2257 14.8904 6.48752 15.048C6.74934 15.2056 6.95339 15.4296 7.07386 15.6916C7.19433 15.9537 7.2258 16.242 7.1643 16.5202C7.1028 16.7984 6.95109 17.0539 6.72836 17.2544C6.50562 17.4549 6.22188 17.5914 5.913 17.6466C5.60413 17.7018 5.284 17.6733 4.99312 17.5647C4.70224 17.456 4.45366 17.2721 4.27884 17.0362C4.10402 16.8003 4.0108 16.523 4.01097 16.2394C4.01097 16.0511 4.05216 15.8647 4.13217 15.6908C4.21219 15.5169 4.32947 15.3588 4.47731 15.2258C4.62515 15.0927 4.80066 14.9871 4.9938 14.9152C5.18695 14.8432 5.39394 14.8062 5.60297 14.8063Z" fill="white"/>
<path fill-rule="evenodd" clip-rule="evenodd" d="M21.3537 19.9604C20.9604 20.3506 20.5074 20.6885 20.0083 20.9636C19.9771 20.9842 19.9397 20.9958 19.9011 20.9968C19.8624 20.9978 19.8244 20.9882 19.7919 20.9692C19.0801 20.5649 18.4482 20.0564 17.9221 19.4648C17.241 18.6949 16.8074 17.84 16.6605 17.0165C16.5136 16.1929 16.6507 15.3789 17.1119 14.7261C17.2993 14.4605 17.535 14.2252 17.8091 14.03C18.459 13.5625 19.1998 13.3171 19.9424 13.3219C20.4599 13.3347 20.9656 13.4638 21.4135 13.6974C21.8615 13.931 22.2376 14.2617 22.5076 14.6595C23.0035 15.3949 23.1104 16.3332 22.8931 17.2835C22.652 18.2821 22.1208 19.205 21.3537 19.958V19.9604ZM19.8017 14.8063C20.1166 14.8063 20.4245 14.8904 20.6863 15.048C20.9481 15.2056 21.1522 15.4296 21.2726 15.6916C21.3931 15.9537 21.4246 16.242 21.3631 16.5202C21.3016 16.7984 21.1499 17.0539 20.9271 17.2544C20.7044 17.4549 20.4206 17.5914 20.1118 17.6466C19.8029 17.7018 19.4828 17.6733 19.1919 17.5647C18.901 17.456 18.6524 17.2721 18.4776 17.0362C18.3028 16.8003 18.2096 16.523 18.2097 16.2394C18.2097 16.0511 18.2509 15.8647 18.3309 15.6908C18.411 15.5169 18.5282 15.3588 18.6761 15.2258C18.8239 15.0927 18.9994 14.9871 19.1926 14.9152C19.3857 14.8432 19.5927 14.8062 19.8017 14.8063Z" fill="#EF4136"/>
<path d="M19.8017 14.8063C20.1166 14.8063 20.4245 14.8904 20.6863 15.048C20.9481 15.2056 21.1522 15.4296 21.2726 15.6916C21.3931 15.9537 21.4246 16.242 21.3631 16.5202C21.3016 16.7984 21.1499 17.0539 20.9271 17.2544C20.7044 17.4549 20.4206 17.5914 20.1118 17.6466C19.8029 17.7018 19.4828 17.6733 19.1919 17.5647C18.901 17.456 18.6524 17.2721 18.4776 17.0362C18.3028 16.8003 18.2096 16.523 18.2097 16.2394C18.2097 16.0511 18.2509 15.8647 18.3309 15.6908C18.411 15.5169 18.5282 15.3588 18.6761 15.2258C18.8239 15.0927 18.9994 14.9871 19.1926 14.9152C19.3857 14.8432 19.5927 14.8062 19.8017 14.8063Z" fill="white"/>
</g>
<defs>
<filter id="filter0_d_6_70" x="0.405403" y="0.489563" width="24.5946" height="24.5104" filterUnits="userSpaceOnUse" color-interpolation-filters="sRGB">
<feFlood flood-opacity="0" result="BackgroundImageFix"/>
<feColorMatrix in="SourceAlpha" type="matrix" values="0 0 0 0 0 0 0 0 0 0 0 0 0 0 0 0 0 0 127 0" result="hardAlpha"/>
<feOffset dy="1"/>
<feGaussianBlur stdDeviation="1"/>
<feColorMatrix type="matrix" values="0 0 0 0 0 0 0 0 0 0 0 0 0 0 0 0 0 0 0.25 0"/>
<feBlend mode="normal" in2="BackgroundImageFix" result="effect1_dropShadow_6_70"/>
<feBlend mode="normal" in="SourceGraphic" in2="effect1_dropShadow_6_70" result="shape"/>
</filter>
</defs>
</svg>
