<svg width="22" height="22" viewBox="0 0 22 22" fill="none" xmlns="http://www.w3.org/2000/svg">
<g filter="url(#filter0_d_101_86)">
<path d="M2.55579 20C2.15922 20 1.8084 19.8931 1.50334 19.6794C1.19829 19.4656 1.03051 19.185 1 18.8377C1 18.4636 1.19829 18.0762 1.59486 17.6754L9.6026 8.85771V10.5411L2.0982 2.32465C1.70163 1.89713 1.50334 1.50969 1.50334 1.16233C1.53385 0.814963 1.70163 0.534402 2.00669 0.320642C2.31174 0.106881 2.66256 0 3.05913 0C3.51672 0 3.89804 0.0801605 4.2031 0.240481C4.53866 0.374082 4.84372 0.601203 5.11827 0.921844L11.6617 8.17635H10.3805L16.9697 0.921844C17.2443 0.601203 17.5341 0.374082 17.8391 0.240481C18.1442 0.0801605 18.5255 0 18.9831 0C19.4102 0 19.761 0.106881 20.0355 0.320642C20.3406 0.534402 20.4931 0.828323 20.4931 1.2024C20.5236 1.54977 20.3406 1.93721 19.944 2.36473L12.4854 10.4609V8.97796L20.4931 17.6754C20.8592 18.0762 21.027 18.4636 20.9965 18.8377C20.9965 19.185 20.844 19.4656 20.5389 19.6794C20.2338 19.8931 19.8678 20 19.4407 20C19.0136 20 18.6323 19.9198 18.2967 19.7595C17.9917 19.6259 17.6866 19.3988 17.3816 19.0782L10.3347 11.3026H11.6617L4.61492 19.0782C4.34037 19.3721 4.03532 19.5992 3.69975 19.7595C3.3947 19.9198 3.01338 20 2.55579 20Z" fill="#29374C"/>
</g>
<defs>
<filter id="filter0_d_101_86" x="0" y="0" width="22" height="22" filterUnits="userSpaceOnUse" color-interpolation-filters="sRGB">
<feFlood flood-opacity="0" result="BackgroundImageFix"/>
<feColorMatrix in="SourceAlpha" type="matrix" values="0 0 0 0 0 0 0 0 0 0 0 0 0 0 0 0 0 0 127 0" result="hardAlpha"/>
<feOffset dy="1"/>
<feGaussianBlur stdDeviation="0.5"/>
<feColorMatrix type="matrix" values="0 0 0 0 0 0 0 0 0 0 0 0 0 0 0 0 0 0 0.25 0"/>
<feBlend mode="normal" in2="BackgroundImageFix" result="effect1_dropShadow_101_86"/>
<feBlend mode="normal" in="SourceGraphic" in2="effect1_dropShadow_101_86" result="shape"/>
</filter>
</defs>
</svg>
