<svg width="26" height="25" viewBox="0 0 26 25" fill="none" xmlns="http://www.w3.org/2000/svg">
<path d="M4.80364 5.27854L5.08219 5.9749L6.4749 5.41781L6.19636 4.72146L4.80364 5.27854ZM1.0156 0.250162C0.601475 0.241547 0.258777 0.570277 0.250162 0.984401C0.241547 1.39852 0.570277 1.74122 0.984401 1.74984L1.0156 0.250162ZM6.19636 4.72146C5.1475 2.0993 3.41189 0.300013 1.0156 0.250162L0.984401 1.74984C2.50029 1.78137 3.8525 2.9007 4.80364 5.27854L6.19636 4.72146Z" fill="#334155"/>
<circle cx="10.8572" cy="22.9176" r="1.25" stroke="#334155" stroke-width="1.5"/>
<mask id="path-3-inside-1_47_50" fill="white">
<path d="M21 22.9176C21 24.0222 20.1046 24.9176 19 24.9176C17.8954 24.9176 17 24.0222 17 22.9176C17 21.813 17.8954 20.9176 19 20.9176C20.1046 20.9176 21 21.813 21 22.9176Z"/>
</mask>
<path d="M21 22.9176C21 24.0222 20.1046 24.9176 19 24.9176C17.8954 24.9176 17 24.0222 17 22.9176C17 21.813 17.8954 20.9176 19 20.9176C20.1046 20.9176 21 21.813 21 22.9176Z" stroke="#334155" stroke-width="3" mask="url(#path-3-inside-1_47_50)"/>
<mask id="path-4-inside-2_47_50" fill="white">
<path d="M4.57141 4.43408H23.5723C24.8305 4.43408 25.7761 5.58196 25.5353 6.81687L24.3302 12.9973C24.0554 14.4062 22.8211 15.4231 21.3856 15.4231H5.99998L4.57141 4.43408Z"/>
</mask>
<path d="M4.57141 4.43408H23.5723C24.8305 4.43408 25.7761 5.58196 25.5353 6.81687L24.3302 12.9973C24.0554 14.4062 22.8211 15.4231 21.3856 15.4231H5.99998L4.57141 4.43408Z" stroke="#334155" stroke-width="3" mask="url(#path-4-inside-2_47_50)"/>
<path d="M22.5 19.75C22.9142 19.75 23.25 19.4142 23.25 19C23.25 18.5858 22.9142 18.25 22.5 18.25L22.5 19.75ZM9.65941 19L9.65941 19.75L9.65941 19.75L9.65941 19ZM6.71767 15.4116L7.45311 15.5587L6.71767 15.4116ZM22.5 18.25L9.65941 18.25L9.65941 19.75L22.5 19.75L22.5 18.25ZM7.45311 15.5587L7.73544 14.1471L6.26456 13.8529L5.98224 15.2645L7.45311 15.5587ZM9.65941 18.25C8.23956 18.25 7.17465 16.951 7.45311 15.5587L5.98224 15.2645C5.51814 17.585 7.29299 19.75 9.65941 19.75L9.65941 18.25Z" fill="#334155"/>
</svg>
