<svg width="50" height="32" viewBox="0 0 50 32" fill="none" xmlns="http://www.w3.org/2000/svg">
<g clip-path="url(#clip0_163_25)">
<path fill-rule="evenodd" clip-rule="evenodd" d="M46.6662 0H3.33333C1.4925 0 0 1.49583 0 3.33667V28.33C0 30.1729 1.49625 31.6667 3.33375 31.6667H46.6667C48.5079 31.6667 50.0004 30.1708 50.0004 28.33V3.33667C50 1.49375 48.5037 0 46.6662 0Z" fill="#F4F4F4"/>
<path fill-rule="evenodd" clip-rule="evenodd" d="M46.25 31.6667C48.75 31.6667 50 30.4167 50 27.9167V13.0567C49.9996 13.0575 42.5487 26.18 15.4821 31.6667H46.25Z" fill="#E87E04"/>
<path fill-rule="evenodd" clip-rule="evenodd" d="M16.262 15.295H16.7112L18.102 17.3713H18.1091V15.295H18.4516V17.8208H18.0166L16.6116 15.7446H16.6041V17.8208H16.262V15.295ZM19.1004 15.295H20.7304V15.6158H19.4429V16.3688H20.6412V16.6896H19.4429V17.5H20.7945V17.8208H19.1V15.2954L19.1004 15.295ZM21.807 15.6158H20.9941V15.295H22.9625V15.6158H22.15V17.8208H21.8075L21.807 15.6158ZM23.0054 15.295H23.362L23.9183 17.3142H23.9254L24.5212 15.295H24.9129L25.5087 17.3142H25.5158L26.072 15.295H26.4287L25.6941 17.8208H25.3341L24.7204 15.7583H24.7133L24.1037 17.8208H23.7433L23.0054 15.295ZM27.9158 17.885C27.7233 17.885 27.5462 17.8513 27.3845 17.7833C27.2284 17.7195 27.0869 17.6244 26.9688 17.5039C26.8507 17.3834 26.7585 17.24 26.6979 17.0825C26.6315 16.9155 26.5983 16.7372 26.6 16.5575C26.6 16.37 26.6325 16.195 26.6979 16.0333C26.7585 15.8758 26.8506 15.7323 26.9687 15.6117C27.0868 15.4911 27.2283 15.396 27.3845 15.3321C27.5531 15.2631 27.7337 15.2287 27.9158 15.2308C28.1083 15.2308 28.2854 15.2642 28.447 15.3325C28.6032 15.3963 28.7447 15.4914 28.8628 15.612C28.9809 15.7325 29.0731 15.8759 29.1337 16.0333C29.1987 16.195 29.2316 16.37 29.2316 16.5579C29.2316 16.7454 29.1987 16.9204 29.1337 17.0825C29.0731 17.2401 28.981 17.3835 28.8629 17.5041C28.7448 17.6247 28.6033 17.7199 28.447 17.7838C28.2785 17.8527 28.0979 17.8872 27.9158 17.885ZM27.9158 17.5642C28.0608 17.5642 28.1916 17.5371 28.3079 17.4838C28.4245 17.43 28.5245 17.3583 28.6079 17.2679C28.6908 17.1775 28.755 17.0708 28.8 16.9483C28.8454 16.8258 28.8679 16.6958 28.8679 16.5579C28.8679 16.42 28.8454 16.2896 28.8 16.1671C28.7575 16.0491 28.692 15.9406 28.6075 15.8479C28.5241 15.7575 28.4241 15.6854 28.3079 15.6321C28.1846 15.5771 28.0508 15.5497 27.9158 15.5517C27.7807 15.5496 27.6467 15.5771 27.5233 15.6321C27.4066 15.6854 27.307 15.7575 27.2241 15.8479C27.1408 15.9383 27.0766 16.0446 27.0312 16.1671C26.9856 16.2923 26.9628 16.4247 26.9637 16.5579C26.9637 16.6954 26.9862 16.8258 27.0312 16.9483C27.0731 17.066 27.1382 17.174 27.2228 17.2659C27.3073 17.3579 27.4095 17.4318 27.5233 17.4833C27.64 17.5375 27.7708 17.5642 27.9158 17.5642ZM29.7237 15.295H30.6116C30.7733 15.295 30.9066 15.3171 31.0112 15.3608C31.1154 15.405 31.1983 15.4608 31.2587 15.5288C31.3195 15.5963 31.3616 15.6725 31.3854 15.7571C31.4091 15.8413 31.4212 15.9229 31.4212 16.0013C31.4219 16.1625 31.3628 16.3182 31.2554 16.4383C31.1997 16.5007 31.1334 16.5526 31.0595 16.5917C30.982 16.6333 30.8958 16.6588 30.8008 16.6683L31.5175 17.8208H31.0895L30.4479 16.7075H30.0662V17.8208H29.7237V15.295ZM30.0662 16.4079H30.5154C30.582 16.4079 30.6479 16.4025 30.7133 16.3921C30.7787 16.3813 30.837 16.3617 30.8883 16.3329C30.9398 16.304 30.9823 16.2615 31.0112 16.21C31.0444 16.1458 31.0602 16.0739 31.057 16.0017C31.0604 15.9291 31.0446 15.857 31.0112 15.7925C30.9822 15.741 30.9395 15.6985 30.8879 15.6696C30.8335 15.64 30.7745 15.6201 30.7133 15.6108C30.6479 15.6001 30.5817 15.5946 30.5154 15.5946H30.0662V16.4079ZM31.9025 15.295H32.245V16.3867H32.2733L33.39 15.295H33.8675L32.6479 16.4617L33.9495 17.8208H33.45L32.2729 16.5579H32.2445V17.8204H31.902L31.9025 15.295ZM4.41663 7.4671H6.77079C7.16454 7.4671 7.54413 7.52793 7.90996 7.64876C8.27538 7.7696 8.59871 7.95418 8.87996 8.20168C9.16121 8.44918 9.38621 8.76001 9.55496 9.1346C9.72371 9.50876 9.80829 9.94918 9.80829 10.4554C9.80829 10.9679 9.71121 11.4108 9.51704 11.785C9.33527 12.1442 9.07936 12.4608 8.76621 12.7138C8.46211 12.9571 8.11617 13.1429 7.74538 13.2621C7.39011 13.3801 7.01847 13.4414 6.64413 13.4438H4.41663V7.4671ZM6.27288 12.4813C6.60496 12.4813 6.91871 12.4438 7.21371 12.3675C7.49132 12.2998 7.75341 12.1796 7.98579 12.0133C8.20713 11.8505 8.38523 11.6359 8.50454 11.3883C8.63121 11.1321 8.69454 10.8217 8.69454 10.4554C8.69454 10.0954 8.63829 9.78585 8.52579 9.5271C8.41329 9.26793 8.25704 9.05835 8.05746 8.89793C7.84788 8.73271 7.60667 8.61217 7.34871 8.54376C7.0557 8.4651 6.75334 8.42669 6.44996 8.4296H5.47996V12.4813H6.27288ZM10.7958 7.4671H11.8591V13.4438H10.7958V7.4671ZM16.0945 8.75043C15.9835 8.58835 15.8262 8.46336 15.6433 8.39168C15.3406 8.26965 15.0075 8.24461 14.69 8.32001C14.5787 8.34631 14.4729 8.39201 14.3775 8.45501C14.2852 8.51648 14.2086 8.59885 14.1541 8.69543C14.0957 8.80263 14.0665 8.92336 14.0695 9.04543C14.0695 9.24835 14.14 9.40335 14.2804 9.51001C14.4212 9.6171 14.5954 9.71001 14.8037 9.78876C15.012 9.86751 15.2395 9.94335 15.487 10.0167C15.7345 10.0896 15.962 10.1908 16.1704 10.3208C16.3787 10.45 16.5529 10.6217 16.6937 10.8354C16.8341 11.0492 16.9045 11.3333 16.9045 11.6879C16.9045 12.0088 16.8454 12.2888 16.7275 12.5279C16.6151 12.7597 16.4519 12.9631 16.25 13.1229C16.0427 13.2844 15.8066 13.4048 15.5541 13.4775C15.2827 13.5574 15.0012 13.5972 14.7183 13.5958C14.3531 13.5968 13.9906 13.5339 13.647 13.41C13.3012 13.2844 12.9952 13.0686 12.7608 12.785L13.5625 12.0088C13.6916 12.2058 13.862 12.3588 14.0729 12.4688C14.3934 12.637 14.7656 12.6778 15.115 12.5829C15.2387 12.5492 15.3512 12.4983 15.4525 12.4308C15.5537 12.3633 15.6354 12.2775 15.697 12.1733C15.7591 12.0692 15.79 11.9496 15.79 11.8146C15.79 11.595 15.7195 11.4263 15.5791 11.3079C15.4221 11.1803 15.2453 11.0791 15.0558 11.0083C14.8314 10.9212 14.6035 10.8438 14.3725 10.7763C14.1326 10.7064 13.9029 10.6055 13.6891 10.4763C13.4794 10.3483 13.3007 10.1754 13.1658 9.97001C13.0254 9.75918 12.955 9.47626 12.955 9.12168C12.955 8.8121 13.0183 8.54501 13.145 8.32001C13.2716 8.09501 13.4375 7.90751 13.6425 7.75835C13.8553 7.60567 14.094 7.49274 14.347 7.42501C14.9134 7.26831 15.5131 7.28004 16.0729 7.45876C16.3679 7.5546 16.6337 7.7121 16.87 7.93168L16.0941 8.75001L16.0945 8.75043ZM22.1104 8.86835C21.8912 8.6321 21.6787 8.4746 21.4733 8.39585C21.2757 8.31848 21.0655 8.27836 20.8533 8.27751C20.5441 8.27751 20.2641 8.33251 20.0137 8.4421C19.7693 8.54767 19.5495 8.7029 19.3683 8.89793C19.1864 9.09526 19.0446 9.32607 18.9508 9.57751C18.8508 9.84473 18.8006 10.128 18.8029 10.4133C18.8029 10.7342 18.852 11.0296 18.9508 11.2996C19.0491 11.5696 19.1883 11.8033 19.3683 12.0004C19.5483 12.1971 19.7633 12.3521 20.0141 12.4646C20.2641 12.5771 20.5441 12.6333 20.8533 12.6333C21.0986 12.6326 21.3401 12.5733 21.5579 12.4604C21.7858 12.345 21.9979 12.1604 22.195 11.9075L23.0725 12.5321C22.8025 12.9033 22.4733 13.1738 22.085 13.3425C21.6937 13.512 21.2714 13.5983 20.845 13.5958C20.3837 13.5958 19.9604 13.5208 19.575 13.3721C19.2031 13.2315 18.8641 13.016 18.5791 12.7388C18.2963 12.4591 18.0738 12.1245 17.9254 11.7554C17.7679 11.3729 17.6891 10.9479 17.6891 10.4808C17.6891 10.0025 17.7683 9.56793 17.9254 9.17668C18.0723 8.8019 18.295 8.46147 18.5795 8.17668C18.8636 7.89728 19.2027 7.68016 19.5754 7.53918C19.9604 7.39001 20.3837 7.31543 20.845 7.31543C21.25 7.31543 21.6254 7.3871 21.9712 7.53043C22.317 7.67418 22.6391 7.91751 22.9375 8.26085L22.1104 8.86835ZM30.1262 7.4671H31.3495L32.9779 11.9838L34.657 7.4671H35.8045L33.3916 13.4438H32.4708L30.125 7.4671H30.1262ZM36.4458 7.4671H40.4029V8.4296H37.5091V9.89835H40.2508V10.8608H37.5091V12.4817H40.555V13.4438H36.4458V7.4671ZM41.6012 7.4671H43.6766C43.9637 7.4671 44.2408 7.49418 44.5079 7.54751C44.7601 7.59515 45.0016 7.68803 45.2208 7.82168C45.4291 7.95085 45.595 8.12585 45.7187 8.34501C45.8425 8.5646 45.9041 8.84335 45.9041 9.18085C45.9041 9.61418 45.785 9.9771 45.5458 10.2696C45.3066 10.5625 44.965 10.7396 44.5208 10.8017L46.1066 13.4438H44.8241L43.4408 10.9113H42.6641V13.4438H41.6012V7.4671ZM43.4908 10C43.6425 10 43.7945 9.99293 43.9462 9.97918C44.0899 9.96704 44.2309 9.93275 44.3641 9.87751C44.4877 9.82648 44.5944 9.74173 44.672 9.63293C44.7508 9.52335 44.79 9.3696 44.79 9.17293C44.79 8.99835 44.7537 8.85751 44.6804 8.75085C44.6092 8.64539 44.5099 8.56196 44.3937 8.51001C44.2691 8.45482 44.1367 8.41926 44.0012 8.4046C43.8626 8.38812 43.7232 8.37977 43.5837 8.3796H42.6637V10H43.4908Z" fill="black"/>
<path d="M26.8904 13.6C28.6248 13.6 30.0308 12.1932 30.0308 10.4579C30.0308 8.72259 28.6248 7.31583 26.8904 7.31583C25.156 7.31583 23.75 8.72259 23.75 10.4579C23.75 12.1932 25.156 13.6 26.8904 13.6Z" fill="#E87E04"/>
</g>
<defs>
<clipPath id="clip0_163_25">
<rect width="50" height="31.6667" fill="white"/>
</clipPath>
</defs>
</svg>
