<svg width="50" height="32" viewBox="0 0 50 32" fill="none" xmlns="http://www.w3.org/2000/svg">
<g clip-path="url(#clip0_163_16)">
<path fill-rule="evenodd" clip-rule="evenodd" d="M46.6662 0H3.33333C1.4925 0 0 1.49583 0 3.33667V28.33C0 30.1729 1.49625 31.6667 3.33375 31.6667H46.6667C48.5079 31.6667 50.0004 30.1708 50.0004 28.33V3.33667C50 1.49375 48.5037 0 46.6662 0Z" fill="#227FBB"/>
<path fill-rule="evenodd" clip-rule="evenodd" d="M4.51042 11.3792L3.54792 9.03334L2.59083 11.3792H4.51042ZM25.7171 10.445C25.5238 10.5625 25.295 10.5663 25.0213 10.5663H23.3129V9.25917H25.0446C25.2896 9.25917 25.5454 9.27 25.7113 9.36542C25.8942 9.45084 26.0071 9.63334 26.0071 9.88542C26.0071 10.1429 25.8996 10.3496 25.7171 10.445ZM37.9058 11.3792L36.9325 9.03334L35.9646 11.3792H37.9058ZM15.185 13.9183H13.7433L13.7383 9.30959L11.6988 13.9183H10.4638L8.41917 9.30584V13.9183H5.55875L5.01833 12.6058H2.09L1.54417 13.9183H0.0166667L2.535 8.03375H4.625L7.01708 13.6054V8.03375H9.31292L11.1533 12.0258L12.8438 8.03375H15.1854L15.185 13.9183ZM20.9317 13.9183H16.2333V8.03375H20.9317V9.25875H17.64V10.32H20.8525V11.5263H17.64V12.7013H20.9317V13.9183ZM27.5563 9.61834C27.5563 10.5567 26.93 11.0417 26.565 11.1871C26.8729 11.3042 27.1358 11.5113 27.2608 11.6829C27.4596 11.9754 27.4938 12.2371 27.4938 12.7621V13.9183H26.075L26.07 13.1767C26.07 12.8225 26.1038 12.3129 25.8479 12.03C25.6425 11.8229 25.3292 11.7779 24.8229 11.7779H23.3125V13.9183H21.9063V8.03375H25.1413C25.86 8.03375 26.3896 8.0525 26.8442 8.31542C27.2892 8.57834 27.5558 8.96209 27.5558 9.61875L27.5563 9.61834ZM29.8071 13.9183H28.3717V8.03375H29.8071V13.9183ZM46.4554 13.9183H44.4625L41.7967 9.50167V13.9183H38.9325L38.385 12.6058H35.4633L34.9325 13.9183H33.2867C32.6033 13.9183 31.7375 13.7671 31.2475 13.2675C30.7529 12.7679 30.4958 12.0913 30.4958 11.0208C30.4958 10.1483 30.6496 9.35 31.2542 8.72C31.7088 8.25 32.4208 8.03375 33.39 8.03375H34.7517V9.29459H33.4183C32.9054 9.29459 32.6154 9.37084 32.3363 9.64334C32.0967 9.89084 31.9321 10.3596 31.9321 10.9763C31.9321 11.6067 32.0571 12.0613 32.3188 12.3583C32.5354 12.5913 32.9288 12.6617 33.2988 12.6617H33.9304L35.9129 8.03375H38.02L40.4013 13.6004V8.03334H42.5429L45.015 12.1321V8.03334H46.4554V13.9183ZM0 15.075H2.40333L2.945 13.7675H4.15833L4.69875 15.075H9.42708V14.075L9.84917 15.0788H12.3033L12.7254 14.06V15.0746H24.4758L24.4704 12.9288H24.6975C24.8567 12.9342 24.9033 12.9492 24.9033 13.2121V15.0746H30.9808V14.5746C31.4708 14.8375 32.2333 15.0746 33.2367 15.0746H35.7933L36.3404 13.7671H37.5533L38.0883 15.0746H43.0154V13.8329L43.7613 15.0746H47.7096V6.86667H43.8025V7.83625L43.255 6.86667H39.2458V7.83625L38.7433 6.86667H33.3275C32.4208 6.86667 31.6238 6.99334 30.9804 7.34584V6.86667H27.2429V7.34584C26.8333 6.9825 26.275 6.86667 25.6546 6.86667H12.0008L11.0846 8.98667L10.1438 6.86667H5.84375V7.83625L5.37083 6.86667H1.70333L0 10.7692V15.075ZM50.0263 19.4083H47.4629C47.2071 19.4083 47.0371 19.4179 46.8938 19.5146C46.7454 19.61 46.6883 19.7513 46.6883 19.9383C46.6883 20.1604 46.8133 20.3113 46.9958 20.3767C47.1442 20.4283 47.3038 20.4433 47.5379 20.4433L48.3004 20.4638C49.0692 20.4829 49.5829 20.615 49.8963 20.9375C49.9529 20.9825 49.9871 21.0329 50.0263 21.0833V19.4083ZM50.0263 23.2892C49.6846 23.7888 49.0192 24.0421 48.1179 24.0421H45.4017V22.7796H48.1067C48.375 22.7796 48.5629 22.7446 48.6758 22.6338C48.7738 22.5429 48.8425 22.4108 48.8425 22.2504C48.8425 22.0788 48.7738 21.9425 48.6704 21.8608C48.5683 21.7713 48.42 21.7304 48.1746 21.7304C46.8542 21.6854 45.2067 21.7713 45.2067 19.9083C45.2067 19.0546 45.7488 18.1558 47.2246 18.1558H50.0263V16.985H47.4233C46.6379 16.985 46.0671 17.1725 45.6629 17.4654V16.9846H41.8129C41.1975 16.9846 40.4746 17.1375 40.1329 17.4654V16.9846H33.2579V17.4654C32.7108 17.0708 31.7875 16.9846 31.3613 16.9846H26.8267V17.4654C26.3938 17.0463 25.4308 16.9846 24.8446 16.9846H19.7692L18.6079 18.2417L17.52 16.9846H9.93875V25.1979H17.3775L18.5742 23.9213L19.7013 25.1979L24.2867 25.2021V23.27H24.7375C25.3458 23.2796 26.0633 23.255 26.6963 22.9813V25.1979H30.4783V23.0571H30.6608C30.8938 23.0571 30.9167 23.0667 30.9167 23.2996V25.1979H42.4054C43.1346 25.1979 43.8971 25.0108 44.3196 24.6721V25.1979H47.9638C48.7221 25.1979 49.4629 25.0913 50.0263 24.8188V23.2892ZM44.4167 20.9371C44.6904 21.2204 44.8375 21.5788 44.8375 22.1842C44.8375 23.4508 44.0458 24.0417 42.6279 24.0417H39.8875V22.7792H42.6158C42.8825 22.7792 43.0721 22.7442 43.1908 22.6333C43.2871 22.5425 43.3567 22.4104 43.3567 22.25C43.3567 22.0783 43.2817 21.9421 43.185 21.8604C43.0775 21.7708 42.9292 21.73 42.6842 21.73C41.3688 21.685 39.7217 21.7708 39.7217 19.9079C39.7217 19.0542 40.2579 18.1554 41.7325 18.1554H44.5521V19.4083H41.9721C41.7163 19.4083 41.55 19.4179 41.4088 19.5146C41.2546 19.61 41.1975 19.7513 41.1975 19.9379C41.1975 20.16 41.3283 20.3113 41.505 20.3767C41.6533 20.4283 41.8129 20.4433 42.0525 20.4433L42.8096 20.4638C43.5729 20.4825 44.0971 20.6146 44.4158 20.9371H44.4167ZM31.7258 20.5738C31.5375 20.6854 31.305 20.6946 31.0313 20.6946H29.3229V19.3729H31.0546C31.3046 19.3729 31.5554 19.3779 31.7254 19.4792C31.9079 19.5746 32.0171 19.7567 32.0171 20.0083C32.0171 20.2604 31.9083 20.4633 31.7258 20.5738ZM32.575 21.3063C32.8883 21.4217 33.1442 21.6288 33.2642 21.8004C33.4625 22.0879 33.4913 22.3558 33.4971 22.8746V24.0413H32.085V23.305C32.085 22.9508 32.1192 22.4267 31.8579 22.1529C31.6521 21.9421 31.3392 21.8917 30.8258 21.8917H29.3229V24.0417H27.9096V18.1554H31.1567C31.8688 18.1554 32.3875 18.1867 32.8488 18.4329C33.2929 18.7013 33.5721 19.0688 33.5721 19.74C33.5721 20.6796 32.9454 21.1592 32.575 21.3063ZM34.3517 18.1554H39.0458V19.3725H35.7525V20.4429H38.9654V21.6438H35.7525V22.8146L39.0458 22.82V24.0417H34.3513L34.3517 18.1554ZM24.8629 20.8721H23.045V19.3729H24.8792C25.3867 19.3729 25.7392 19.5796 25.7392 20.0946C25.7392 20.6038 25.4033 20.8721 24.8629 20.8721ZM21.6446 23.5063L19.485 21.1088L21.6446 18.7871V23.5063ZM16.0679 22.8146H12.61V21.6438H15.6975V20.4429H12.61V19.3725H16.1363L17.6746 21.0879L16.0679 22.8146ZM27.2492 20.0946C27.2492 21.7296 26.0296 22.0671 24.8 22.0671H23.045V24.0417H20.3117L18.5796 22.0929L16.7796 24.0417H11.2083V18.1554H16.8654L18.5958 20.0846L20.3846 18.1554H24.8792C25.995 18.1554 27.2492 18.4642 27.2492 20.0946Z" fill="white"/>
</g>
<defs>
<clipPath id="clip0_163_16">
<rect width="50" height="31.6667" fill="white"/>
</clipPath>
</defs>
</svg>
