<svg width="20" height="20" viewBox="0 0 20 20" fill="none" xmlns="http://www.w3.org/2000/svg">
<path d="M9.07668 2.21993C9.41827 1.39864 10.5817 1.39864 10.9233 2.21993L12.4105 5.79546C12.5545 6.1417 12.8801 6.37827 13.2539 6.40823L17.114 6.7177C18.0006 6.78878 18.3601 7.89529 17.6846 8.47396L14.7436 10.9932C14.4588 11.2372 14.3345 11.6199 14.4215 11.9847L15.32 15.7515C15.5264 16.6167 14.5851 17.3006 13.826 16.8369L10.5213 14.8184C10.2012 14.6229 9.79876 14.6229 9.47875 14.8184L6.17397 16.8369C5.41487 17.3006 4.47362 16.6167 4.68001 15.7515L5.57852 11.9847C5.66553 11.6199 5.54116 11.2372 5.25637 10.9932L2.31539 8.47396C1.63985 7.89529 1.99938 6.78878 2.88603 6.7177L6.74612 6.40823C7.11991 6.37827 7.44552 6.1417 7.58953 5.79546L9.07668 2.21993Z" stroke="#E94B35" stroke-width="2"/>
<mask id="mask0_434_30" style="mask-type:alpha" maskUnits="userSpaceOnUse" x="0" y="0" width="10" height="18">
<rect width="10" height="18" transform="matrix(-1 0 0 1 10 0)" fill="white"/>
</mask>
<g mask="url(#mask0_434_30)">
<path d="M10.9233 2.21993C10.5817 1.39864 9.41827 1.39864 9.07668 2.21993L7.58953 5.79546C7.44552 6.1417 7.11991 6.37827 6.74612 6.40823L2.88603 6.7177C1.99938 6.78878 1.63985 7.89529 2.31539 8.47396L5.25637 10.9932C5.54116 11.2372 5.66553 11.6199 5.57852 11.9847L4.68001 15.7515C4.47362 16.6167 5.41487 17.3006 6.17397 16.8369L9.47875 14.8184C9.79876 14.6229 10.2012 14.6229 10.5213 14.8184L13.826 16.8369C14.5851 17.3006 15.5264 16.6167 15.32 15.7515L14.4215 11.9847C14.3345 11.6199 14.4588 11.2372 14.7436 10.9932L17.6846 8.47396C18.3601 7.89529 18.0006 6.78878 17.114 6.7177L13.2539 6.40823C12.8801 6.37827 12.5545 6.1417 12.4105 5.79546L10.9233 2.21993Z" fill="#E94B35" stroke="#E94B35"/>
</g>
</svg>
