<svg width="217" height="63" viewBox="0 0 217 63" fill="none" xmlns="http://www.w3.org/2000/svg">
<g clip-path="url(#clip0_181_17)">
<path d="M15.3584 14.5H35.6416C38.7829 14.5 41.4748 16.7466 42.0367 19.8372L47.3095 48.8373C48.0349 52.8272 44.9697 56.5 40.9143 56.5H10.0857C6.03033 56.5 2.9651 52.8272 3.69055 48.8372L8.96328 19.8372C9.52522 16.7465 12.2171 14.5 15.3584 14.5Z" stroke="#505B6B" stroke-width="3"/>
<path d="M31.5 9C31.5 8.21207 31.3448 7.43185 31.0433 6.7039C30.7417 5.97595 30.2998 5.31451 29.7426 4.75736C29.1855 4.20021 28.5241 3.75825 27.7961 3.45672C27.0681 3.15519 26.2879 3 25.5 3C24.7121 3 23.9319 3.15519 23.2039 3.45672C22.4759 3.75825 21.8145 4.20021 21.2574 4.75736C20.7002 5.31451 20.2583 5.97595 19.9567 6.7039C19.6552 7.43185 19.5 8.21207 19.5 9" stroke="#505B6B" stroke-width="3" stroke-linecap="square"/>
<path d="M39 30.5384C39 34.9142 35.4527 38.4615 31.0769 38.4615C26.7011 38.4615 23.1538 34.9142 23.1538 30.5384C23.1538 26.1626 26.7011 22.6154 31.0769 22.6154C35.4527 22.6154 39 26.1626 39 30.5384Z" fill="#FFCC00" stroke="white" stroke-width="2"/>
<path d="M33.4231 39.4615C33.4231 43.8373 29.8758 47.3846 25.5 47.3846C21.1242 47.3846 17.5769 43.8373 17.5769 39.4615C17.5769 35.0857 21.1242 31.5385 25.5 31.5385C29.8758 31.5385 33.4231 35.0857 33.4231 39.4615Z" fill="#31C2F2" stroke="white" stroke-width="2"/>
<path d="M27.8462 30.5384C27.8462 34.9142 24.2989 38.4615 19.9231 38.4615C15.5473 38.4615 12 34.9142 12 30.5384C12 26.1626 15.5473 22.6154 19.9231 22.6154C24.2989 22.6154 27.8462 26.1626 27.8462 30.5384Z" fill="#ED314A" stroke="white" stroke-width="2"/>
<path d="M63.2566 13V49H62.1407H61.0248V13H63.2566Z" fill="#29374C"/>
<path d="M83.3916 31.528V49H81.1598V45.928C80.6497 47.016 79.8632 47.848 78.8004 48.424C77.7376 49 76.5473 49.288 75.2294 49.288C73.1464 49.288 71.4459 48.648 70.1281 47.368C68.8102 46.0667 68.1513 44.1893 68.1513 41.736V31.528H70.3512V41.48C70.3512 43.3787 70.8189 44.8293 71.7541 45.832C72.7106 46.8347 74.0072 47.336 75.6439 47.336C77.3231 47.336 78.6622 46.8027 79.6613 45.736C80.6603 44.6693 81.1598 43.1013 81.1598 41.032V31.528H83.3916Z" fill="#29374C"/>
<path d="M96.6493 31.208C98.7323 31.208 100.433 31.8587 101.751 33.16C103.068 34.44 103.727 36.3067 103.727 38.76V49H101.527V39.016C101.527 37.1173 101.049 35.6667 100.093 34.664C99.1574 33.6613 97.8715 33.16 96.2348 33.16C94.5556 33.16 93.2164 33.6933 92.2174 34.76C91.2184 35.8267 90.7189 37.3947 90.7189 39.464V49H88.487V31.528H90.7189V34.504C91.2715 33.4373 92.0686 32.6267 93.1102 32.072C94.1517 31.496 95.3314 31.208 96.6493 31.208Z" fill="#29374C"/>
<path d="M107.643 40.232C107.643 38.44 107.994 36.872 108.695 35.528C109.418 34.1627 110.406 33.1173 111.66 32.392C112.936 31.6453 114.371 31.272 115.965 31.272C117.623 31.272 119.047 31.656 120.237 32.424C121.449 33.192 122.32 34.1733 122.852 35.368V31.528H125.083V49H122.852V45.128C122.299 46.3227 121.417 47.3147 120.205 48.104C119.015 48.872 117.591 49.256 115.933 49.256C114.36 49.256 112.936 48.8827 111.66 48.136C110.406 47.3893 109.418 46.3333 108.695 44.968C107.994 43.6027 107.643 42.024 107.643 40.232ZM122.852 40.264C122.852 38.856 122.565 37.6187 121.991 36.552C121.417 35.4853 120.63 34.664 119.631 34.088C118.654 33.512 117.57 33.224 116.379 33.224C115.146 33.224 114.041 33.5013 113.063 34.056C112.086 34.6107 111.31 35.4213 110.736 36.488C110.183 37.5333 109.907 38.7813 109.907 40.232C109.907 41.6613 110.183 42.92 110.736 44.008C111.31 45.0747 112.086 45.896 113.063 46.472C114.041 47.0267 115.146 47.304 116.379 47.304C117.57 47.304 118.654 47.016 119.631 46.44C120.63 45.864 121.417 45.0427 121.991 43.976C122.565 42.9093 122.852 41.672 122.852 40.264Z" fill="#29374C"/>
<path d="M132.41 34.632C132.899 33.544 133.643 32.7013 134.642 32.104C135.663 31.5067 136.906 31.208 138.373 31.208V33.544H137.767C136.151 33.544 134.855 33.9813 133.877 34.856C132.899 35.7307 132.41 37.192 132.41 39.24V49H130.179V31.528H132.41V34.632Z" fill="#29374C"/>
<path d="M147.724 49.256C145.726 49.256 144.09 48.7973 142.814 47.88C141.56 46.9413 140.859 45.672 140.71 44.072H143.006C143.112 45.0533 143.569 45.8533 144.377 46.472C145.206 47.0693 146.311 47.368 147.692 47.368C148.904 47.368 149.85 47.08 150.53 46.504C151.232 45.928 151.582 45.2133 151.582 44.36C151.582 43.7627 151.391 43.272 151.008 42.888C150.626 42.504 150.137 42.2053 149.542 41.992C148.968 41.7573 148.181 41.512 147.182 41.256C145.886 40.9147 144.834 40.5733 144.026 40.232C143.218 39.8907 142.527 39.3893 141.953 38.728C141.401 38.0453 141.124 37.1387 141.124 36.008C141.124 35.1547 141.379 34.3653 141.89 33.64C142.4 32.9147 143.122 32.3387 144.058 31.912C144.993 31.4853 146.056 31.272 147.246 31.272C149.117 31.272 150.626 31.752 151.774 32.712C152.921 33.6507 153.538 34.952 153.623 36.616H151.391C151.327 35.592 150.923 34.7707 150.179 34.152C149.457 33.512 148.458 33.192 147.182 33.192C146.056 33.192 145.142 33.4587 144.44 33.992C143.739 34.5253 143.388 35.1867 143.388 35.976C143.388 36.6587 143.59 37.224 143.994 37.672C144.419 38.0987 144.94 38.44 145.556 38.696C146.173 38.9307 147.002 39.1973 148.043 39.496C149.297 39.8373 150.296 40.168 151.04 40.488C151.784 40.808 152.422 41.2773 152.953 41.896C153.485 42.5147 153.761 43.336 153.782 44.36C153.782 45.2987 153.527 46.1413 153.017 46.888C152.507 47.6133 151.795 48.1893 150.881 48.616C149.967 49.0427 148.915 49.256 147.724 49.256Z" fill="#29374C"/>
<path d="M166.273 31.208C167.591 31.208 168.771 31.4853 169.812 32.04C170.875 32.5947 171.704 33.448 172.299 34.6C172.916 35.7307 173.224 37.1173 173.224 38.76V49H171.024V39.016C171.024 37.1173 170.546 35.6667 169.589 34.664C168.654 33.6613 167.368 33.16 165.731 33.16C164.052 33.16 162.713 33.6933 161.714 34.76C160.715 35.8267 160.215 37.3947 160.215 39.464V49H157.983V13H160.215V34.504C160.768 33.4587 161.576 32.648 162.638 32.072C163.722 31.496 164.934 31.208 166.273 31.208Z" fill="#29374C"/>
<path d="M185.78 49.256C184.143 49.256 182.666 48.8933 181.348 48.168C180.051 47.4213 179.021 46.376 178.255 45.032C177.511 43.6667 177.139 42.0773 177.139 40.264C177.139 38.4507 177.522 36.872 178.287 35.528C179.052 34.1627 180.094 33.1173 181.412 32.392C182.73 31.6453 184.207 31.272 185.844 31.272C187.48 31.272 188.958 31.6453 190.276 32.392C191.615 33.1173 192.656 34.1627 193.4 35.528C194.165 36.872 194.548 38.4507 194.548 40.264C194.548 42.056 194.165 43.6347 193.4 45C192.635 46.3653 191.583 47.4213 190.244 48.168C188.905 48.8933 187.417 49.256 185.78 49.256ZM185.78 47.304C186.928 47.304 187.991 47.048 188.968 46.536C189.946 46.0027 190.733 45.2133 191.328 44.168C191.944 43.1013 192.252 41.8 192.252 40.264C192.252 38.728 191.955 37.4373 191.36 36.392C190.764 35.3253 189.978 34.536 189 34.024C188.022 33.4907 186.96 33.224 185.812 33.224C184.664 33.224 183.601 33.4907 182.623 34.024C181.646 34.536 180.859 35.3253 180.264 36.392C179.69 37.4373 179.403 38.728 179.403 40.264C179.403 41.8 179.69 43.1013 180.264 44.168C180.859 45.2133 181.635 46.0027 182.592 46.536C183.569 47.048 184.632 47.304 185.78 47.304Z" fill="#29374C"/>
<path d="M200.816 35.368C201.369 34.1947 202.24 33.224 203.431 32.456C204.642 31.6667 206.077 31.272 207.735 31.272C209.308 31.272 210.721 31.6453 211.976 32.392C213.251 33.1173 214.239 34.1627 214.941 35.528C215.663 36.872 216.025 38.44 216.025 40.232C216.025 42.024 215.663 43.6027 214.941 44.968C214.239 46.3333 213.251 47.3893 211.976 48.136C210.721 48.8827 209.308 49.256 207.735 49.256C206.098 49.256 204.674 48.872 203.463 48.104C202.251 47.3147 201.369 46.3333 200.816 45.16V63H198.616V31.528H200.816V35.368ZM213.761 40.232C213.761 38.7813 213.474 37.5333 212.9 36.488C212.348 35.4213 211.582 34.6107 210.605 34.056C209.627 33.5013 208.521 33.224 207.289 33.224C206.098 33.224 205.004 33.512 204.005 34.088C203.027 34.664 202.251 35.4853 201.677 36.552C201.103 37.6187 200.816 38.856 200.816 40.264C200.816 41.672 201.103 42.9093 201.677 43.976C202.251 45.0427 203.027 45.864 204.005 46.44C205.004 47.016 206.098 47.304 207.289 47.304C208.521 47.304 209.627 47.0267 210.605 46.472C211.582 45.896 212.348 45.0747 212.9 44.008C213.474 42.92 213.761 41.6613 213.761 40.232Z" fill="#29374C"/>
</g>
<defs>
<clipPath id="clip0_181_17">
<rect width="216" height="63" fill="white" transform="translate(0.5)"/>
</clipPath>
</defs>
</svg>
