<svg xmlns="http://www.w3.org/2000/svg" xmlns:xlink="http://www.w3.org/1999/xlink" xml:space="preserve" width="77.8181mm" height="23.2507mm" version="1.1" style="shape-rendering:geometricPrecision; text-rendering:geometricPrecision; image-rendering:optimizeQuality; fill-rule:evenodd; clip-rule:evenodd" viewBox="0 0 1351 404">
 <defs>
  <style type="text/css">
   <![CDATA[
    .fil4 {fill:#EF7F1A;fill-rule:nonzero}
    .fil3 {fill:#E51A4B;fill-rule:nonzero}
    .fil0 {fill:#4E565A;fill-rule:nonzero}
    .fil1 {fill:#077D36;fill-rule:nonzero}
    .fil2 {fill:#008DD2;fill-rule:nonzero}
   ]]>
  </style>
 </defs>
 <g id="Layer_x0020_1">
  <metadata id="CorelCorpID_0Corel-Layer"/>
  <g id="_672908144">
   <path class="fil0" d="M97 85c0,9 -8,17 -18,17 -10,0 -18,-8 -18,-17 0,-24 10,-45 25,-60l0 0 0 0c16,-16 37,-25 60,-25 23,0 45,9 60,25l0 0c15,15 25,36 25,60 0,9 -8,17 -18,17 -10,0 -18,-8 -18,-17 0,-14 -5,-26 -14,-35l0 0c-9,-9 -21,-14 -35,-14 -14,0 -26,5 -35,14l0 0c-8,9 -14,21 -14,35z"/>
   <g>
    <path class="fil1" d="M135 404l-75 0c-2,0 -5,0 -7,-1 -14,-1 -27,-8 -36,-17 -11,-10 -17,-23 -17,-38 0,-2 0,-3 0,-6l8 -70 36 0 -8 74c0,1 0,1 0,2 0,5 2,9 5,13 4,4 10,6 16,7 1,0 1,0 3,0l75 0 0 36z"/>
    <path class="fil2" d="M284 272l8 70c0,3 0,4 0,6 0,15 -6,28 -16,38 -10,9 -23,16 -37,17 -2,1 -4,1 -6,1l-76 0 0 -36 76 0c1,0 2,0 2,0 6,-1 12,-3 16,-7 3,-4 6,-8 6,-13 0,-1 0,-1 0,-2l-9 -74 36 0z"/>
    <g>
     <path class="fil3" d="M157 118l56 0c16,0 30,6 40,17 10,10 17,25 19,40l8 75 -36 0 -7 -71c-1,-7 -4,-14 -9,-19 -4,-4 -9,-7 -15,-7l-56 0 0 -35z"/>
     <path class="fil4" d="M80 118l55 0 0 35 -55 0c-6,0 -12,3 -16,7 -4,5 -7,12 -8,19l-8 71 -36 0 8 -75c2,-15 9,-30 19,-40 11,-11 24,-17 41,-17z"/>
    </g>
   </g>
   <path class="fil0" d="M331 275l0 -3 37 0c2,12 7,21 14,26 6,6 15,9 27,9 12,0 21,-3 27,-8 6,-5 10,-11 10,-18 0,-4 -2,-8 -4,-11 -3,-3 -7,-6 -14,-8 -4,-2 -14,-4 -30,-8 -20,-5 -34,-12 -43,-19 -11,-10 -17,-23 -17,-38 0,-9 3,-18 8,-27 6,-8 14,-14 24,-19 10,-4 22,-6 36,-6 24,0 41,5 53,15 12,11 18,25 19,42l-38 1c-2,-9 -5,-16 -10,-20 -6,-5 -14,-7 -24,-7 -11,0 -20,2 -26,7 -4,3 -6,7 -6,12 0,4 2,8 6,11 5,4 16,8 35,13 18,4 32,9 40,13 9,5 16,11 21,19 5,8 7,18 7,30 0,11 -3,21 -8,30 -6,10 -15,17 -26,21 -11,5 -24,7 -41,7 -23,0 -41,-6 -54,-16 -13,-11 -20,-27 -23,-48zm220 -127l0 70c11,-14 25,-21 41,-21 9,0 16,1 23,4 7,4 12,7 15,12 3,5 6,10 7,16 1,6 2,15 2,27l0 80 -36 0 0 -72c0,-14 -1,-23 -2,-27 -1,-4 -4,-7 -7,-9 -4,-3 -8,-4 -14,-4 -6,0 -11,2 -16,5 -4,3 -8,7 -10,13 -2,6 -3,14 -3,26l0 68 -36 0 0 -188 36 0zm116 118c0,-12 3,-24 9,-35 5,-11 14,-19 25,-25 10,-6 22,-9 36,-9 20,0 37,7 50,20 13,13 20,30 20,50 0,21 -7,38 -20,52 -13,13 -30,20 -50,20 -13,0 -24,-3 -36,-9 -11,-5 -20,-13 -25,-24 -6,-11 -9,-24 -9,-40zm37 2c0,13 3,24 9,31 7,7 14,11 24,11 9,0 17,-4 23,-11 7,-7 10,-18 10,-31 0,-14 -3,-24 -10,-31 -6,-7 -14,-11 -23,-11 -10,0 -17,4 -24,11 -6,7 -9,17 -9,31zm130 -68l33 0 0 20c5,-7 11,-13 18,-17 7,-4 16,-6 25,-6 15,0 29,6 40,18 11,13 16,30 16,52 0,23 -5,40 -16,53 -11,13 -25,19 -41,19 -7,0 -14,-2 -20,-5 -6,-3 -13,-8 -19,-15l0 68 -36 0 0 -187zm35 66c0,15 3,26 9,33 6,8 14,11 22,11 9,0 16,-3 21,-10 6,-6 8,-17 8,-33 0,-14 -2,-25 -8,-32 -6,-6 -13,-10 -21,-10 -9,0 -16,4 -22,10 -6,7 -9,17 -9,31zm126 -85l0 -33 36 0 0 33 -36 0zm0 155l0 -136 36 0 0 136 -36 0zm196 0l-36 0 0 -70c0,-14 -1,-24 -2,-28 -2,-4 -4,-8 -8,-10 -3,-2 -8,-4 -12,-4 -7,0 -12,2 -17,5 -5,4 -9,8 -11,14 -1,6 -2,16 -2,31l0 62 -36 0 0 -136 33 0 0 20c12,-16 27,-23 45,-23 8,0 15,1 22,4 6,3 11,7 15,11 3,4 6,10 7,15 1,6 2,14 2,24l0 85zm33 8l41 5c0,5 2,8 5,10 3,3 8,4 16,4 9,0 16,-1 21,-4 3,-2 5,-5 7,-9 1,-3 2,-9 2,-17l0 -20c-11,15 -25,23 -41,23 -18,0 -33,-8 -43,-24 -9,-12 -13,-27 -13,-45 0,-23 6,-40 16,-52 11,-12 25,-18 41,-18 17,0 31,7 42,22l0 -19 33 0 0 121c0,16 -1,28 -4,36 -2,8 -6,14 -11,19 -4,4 -11,8 -19,11 -8,2 -18,3 -30,3 -23,0 -39,-4 -49,-11 -10,-8 -14,-18 -14,-31 0,-1 0,-2 0,-4zm32 -79c0,14 3,25 8,31 6,7 13,10 21,10 9,0 16,-3 22,-10 6,-7 9,-17 9,-30 0,-14 -3,-25 -9,-31 -5,-7 -13,-11 -22,-11 -8,0 -15,4 -21,10 -5,7 -8,17 -8,31z"/>
  </g>
 </g>
</svg>