<svg width="50" height="32" viewBox="0 0 50 32" fill="none" xmlns="http://www.w3.org/2000/svg">
<g clip-path="url(#clip0_163_6)">
<path fill-rule="evenodd" clip-rule="evenodd" d="M46.6662 0H3.33333C1.4925 0 0 1.49583 0 3.33667V28.33C0 30.1729 1.49625 31.6667 3.33375 31.6667H46.6667C48.5079 31.6667 50.0004 30.1708 50.0004 28.33V3.33667C50 1.49375 48.5037 0 46.6662 0Z" fill="#F4F4F4"/>
<path fill-rule="evenodd" clip-rule="evenodd" d="M25.1308 25.7183C26.4833 24.4954 27.5636 23.0019 28.302 21.3347C29.0403 19.6675 29.42 17.8638 29.4167 16.0404C29.42 14.2175 29.0402 12.4143 28.302 10.7476C27.5637 9.08086 26.4835 7.58788 25.1313 6.36542C22.7392 4.18907 19.6206 2.98454 16.3867 2.98792C9.17334 2.98792 3.33667 8.83126 3.33667 16.0404C3.33667 23.2525 9.17334 29.0963 16.3867 29.0963C19.7408 29.0963 22.8233 27.8158 25.1308 25.7183Z" fill="#2C97DE"/>
<path fill-rule="evenodd" clip-rule="evenodd" d="M25.1309 25.7183C26.4833 24.4954 27.5637 23.0019 28.302 21.3347C29.0403 19.6675 29.4201 17.8638 29.4167 16.0404C29.42 14.2175 29.0403 12.4143 28.302 10.7476C27.5638 9.08085 26.4835 7.58788 25.1313 6.36542L25.1309 25.7183Z" fill="#4487CA"/>
<path fill-rule="evenodd" clip-rule="evenodd" d="M33.895 2.98792C30.5212 2.98792 27.4383 4.26583 25.1308 6.36583C24.6607 6.79701 24.2203 7.25945 23.8125 7.75H26.4496C26.8152 8.18364 27.1459 8.6455 27.4387 9.13125H22.8237C22.5497 9.57942 22.2973 10.0405 22.0675 10.5129H28.1946C28.4075 10.9608 28.5821 11.4221 28.7375 11.8962H21.5242C21.365 12.3479 21.2356 12.8094 21.1367 13.2779H29.125C29.3187 14.1687 29.4158 15.0942 29.4158 16.0408C29.4158 17.4908 29.1829 18.8858 28.7367 20.1875H21.525C21.6762 20.6597 21.8575 21.1218 22.0679 21.5708H28.195C27.9617 22.0487 27.7296 22.51 27.4387 22.9529H22.8233C23.1142 23.4354 23.4633 23.8971 23.8125 24.3346H26.4496C26.0416 24.8248 25.601 25.2869 25.1308 25.7179C27.5289 27.8973 30.6546 29.1023 33.895 29.0967C41.0887 29.0967 46.9254 23.2529 46.9254 16.0408C46.9254 8.83167 41.0887 2.98792 33.895 2.98792Z" fill="#E94B35"/>
<path fill-rule="evenodd" clip-rule="evenodd" d="M45.5483 23.2925H45.6067C45.6267 23.2925 45.6454 23.2954 45.6454 23.2871C45.665 23.2767 45.6842 23.2604 45.6842 23.245C45.6842 23.2283 45.6646 23.2129 45.6454 23.205C45.6454 23.1967 45.6067 23.1992 45.6067 23.1992H45.5483V23.2925ZM45.5483 23.5046H45.4713V23.1333H45.6263C45.6646 23.1333 45.6842 23.1333 45.7229 23.1521C45.7425 23.1729 45.7617 23.2075 45.7617 23.245C45.7617 23.2871 45.7421 23.3246 45.7033 23.34L45.7617 23.5046H45.6646L45.6263 23.3562H45.5479L45.5483 23.5046ZM45.6067 23.64C45.7817 23.64 45.9367 23.4967 45.9367 23.3192C45.9367 23.1408 45.7813 22.9979 45.6067 22.9979C45.5652 22.9984 45.5242 23.0071 45.4861 23.0235C45.448 23.04 45.4135 23.0638 45.3847 23.0936C45.3559 23.1235 45.3333 23.1587 45.3181 23.1974C45.303 23.236 45.2957 23.2773 45.2967 23.3187C45.2967 23.4967 45.4325 23.64 45.6067 23.64ZM45.18 23.3192C45.18 23.0854 45.3742 22.8975 45.6067 22.8975C45.719 22.897 45.827 22.9411 45.9069 23.0201C45.9869 23.099 46.0323 23.2064 46.0333 23.3187C46.0333 23.5521 45.8392 23.7404 45.6067 23.7404C45.4943 23.7407 45.3863 23.6966 45.3064 23.6176C45.2264 23.5386 45.181 23.4316 45.18 23.3192ZM14.35 19.6733H12.7017L13.6708 14.585L11.4408 19.6733H10.0838L9.81209 14.6142L8.72667 19.6733H7.23334L8.49375 13.0558H11.0729L11.1113 17.1521L12.8954 13.0558H15.6292L14.35 19.6733ZM32.4792 19.6067C32.0333 19.7292 31.6842 19.7817 31.3163 19.7817C30.4825 19.7817 30.0363 19.3654 30.0363 18.5996C30.0363 18.4483 30.0363 18.2871 30.0746 18.1162L30.1713 17.5892L30.2492 17.165L31.0054 13.055H32.615L32.3821 14.2904H33.2158L32.9833 15.5975H32.15L31.7233 17.8433C31.7038 17.9437 31.7038 18.0158 31.7038 18.0662C31.7038 18.3446 31.8588 18.4662 32.2467 18.4662C32.4404 18.4662 32.5758 18.4508 32.6925 18.4162L32.4792 19.6067ZM26.0417 15.9904C26.0417 16.6721 26.4104 17.1387 27.2825 17.4912C27.9421 17.7621 28.0579 17.8412 28.0579 18.0854C28.0579 18.4225 27.7671 18.5729 27.1083 18.5729C26.6238 18.5729 26.1583 18.5071 25.6346 18.3583L25.4213 19.6017L25.4796 19.6125L25.79 19.6679C25.8867 19.6837 26.0229 19.7 26.2167 19.7154C26.6042 19.7446 26.9146 19.7612 27.1275 19.7612C28.8533 19.7612 29.6483 19.1908 29.6483 17.9633C29.6483 17.2258 29.3192 16.7912 28.5042 16.465C27.8063 16.1917 27.7292 16.1333 27.7292 15.8817C27.7292 15.59 28.0004 15.4417 28.5242 15.4417C28.8533 15.4417 29.2992 15.4733 29.7067 15.5237L29.9396 14.2779C29.5129 14.2196 28.8729 14.1717 28.5042 14.1717C26.6625 14.1717 26.0225 14.9987 26.0417 15.9904ZM18.5 17.2762C18.3777 17.2609 18.2545 17.2531 18.1313 17.2529C17.22 17.2529 16.7546 17.5283 16.7546 18.0717C16.7546 18.4058 16.9871 18.6208 17.3363 18.6208C17.9954 18.6208 18.4804 18.0721 18.5 17.2762ZM19.605 19.6733H18.2475L18.2863 19.1142C17.86 19.5567 17.3171 19.7662 16.58 19.7662C15.6879 19.7662 15.0867 19.1671 15.0867 18.2971C15.0867 16.9846 16.1338 16.2212 17.9367 16.2212C18.1308 16.2212 18.3633 16.2337 18.5963 16.2629C18.6546 16.0858 18.6738 16.0087 18.6738 15.9133C18.6738 15.5554 18.3829 15.4229 17.6267 15.4229C17.1613 15.4229 16.6379 15.4812 16.2692 15.5737L16.0558 15.6296L15.9004 15.6637L16.1333 14.4554C16.9475 14.2479 17.4708 14.1687 18.0721 14.1687C19.4679 14.1687 20.205 14.715 20.205 15.7492C20.205 16.0142 20.1854 16.2158 20.0692 16.815L19.7396 18.7237L19.6813 19.0654L19.6429 19.3387L19.6038 19.5271V19.6733H19.605ZM24.1425 16.3537C24.1425 16.2425 24.1621 16.1496 24.1621 16.0804C24.1621 15.6429 23.8713 15.3858 23.3863 15.3858C22.8629 15.3858 22.4946 15.7304 22.3588 16.3504L24.1425 16.3537ZM24.9375 19.5567C24.375 19.7054 23.8321 19.7767 23.2696 19.7737C21.4471 19.7737 20.5163 18.9467 20.5163 17.3642C20.5163 15.5158 21.7188 14.1558 23.3475 14.1558C24.685 14.1558 25.5383 14.9167 25.5383 16.1121C25.5383 16.5104 25.48 16.8942 25.325 17.4404H22.1063C22.0867 17.5225 22.0867 17.56 22.0867 17.61C22.0867 18.2329 22.5717 18.5512 23.5217 18.5512C24.1033 18.5512 24.6271 18.4479 25.2088 18.2117L24.9375 19.5567ZM40.6042 16.59C40.6042 16.0275 40.3721 15.4946 39.7125 15.4946C38.8792 15.4946 38.375 16.4758 38.375 17.34C38.375 18.0692 38.7242 18.56 39.3063 18.5487C39.655 18.5487 40.4113 18.0687 40.5467 17.2308C40.585 17.0379 40.6042 16.8233 40.6042 16.59ZM42.2529 17.2337C42.0196 19.0233 40.7596 19.8167 39.0921 19.8167C37.2696 19.8167 36.5325 18.7029 36.5325 17.3375C36.5325 15.4283 37.7738 14.1375 39.7129 14.1375C41.3996 14.1375 42.2921 15.2004 42.2921 16.5662C42.2917 16.8975 42.2917 16.9208 42.2529 17.2337Z" fill="#231F20"/>
<path fill-rule="evenodd" clip-rule="evenodd" d="M42.795 18.8458H42.8533C42.8533 18.8458 42.8729 18.8458 42.8921 18.8383C42.9112 18.83 42.9112 18.8117 42.9112 18.7958C42.9112 18.7825 42.9112 18.7667 42.8921 18.7592C42.8921 18.7508 42.8529 18.7508 42.8337 18.7508H42.795V18.8458ZM42.795 19.0558H42.7175V18.685H42.8725C42.8921 18.685 42.9308 18.6875 42.9692 18.7058C42.9933 18.7308 43.0072 18.764 43.0079 18.7988C43.0079 18.8388 42.9883 18.8783 42.9496 18.8942L43.0079 19.0563H42.9112L42.8529 18.9104H42.795V19.0558ZM42.8533 19.1908C43.0283 19.1908 43.1637 19.0475 43.1637 18.87C43.1645 18.8286 43.1571 18.7875 43.1418 18.749C43.1265 18.7105 43.1038 18.6755 43.0749 18.6458C43.046 18.6162 43.0114 18.5927 42.9733 18.5765C42.9352 18.5603 42.8943 18.5519 42.8529 18.5517C42.6787 18.5517 42.5237 18.6946 42.5237 18.87C42.5237 19.0475 42.6792 19.1908 42.8533 19.1908ZM42.4271 18.87C42.4287 18.7582 42.4744 18.6515 42.5542 18.5731C42.634 18.4947 42.7415 18.4509 42.8533 18.4513C42.9652 18.4508 43.0728 18.4945 43.1527 18.5729C43.2326 18.6513 43.2783 18.7581 43.28 18.87C43.28 19.1033 43.0858 19.2913 42.8533 19.2913C42.741 19.2916 42.6332 19.2475 42.5533 19.1685C42.4734 19.0896 42.4281 18.9823 42.4271 18.87ZM14.7571 19.2913H13.1279L14.0975 14.2033L11.8675 19.2913H10.3937L10.1225 14.2354L9.1529 19.2913H7.67957L8.93957 12.6733H11.4796L11.5958 16.7725L13.3991 12.6733H16.0362L14.7571 19.2913ZM32.8871 19.2279C32.4412 19.35 32.0917 19.4029 31.7233 19.4029C30.8896 19.4029 30.4433 18.9842 30.4433 18.2208C30.4433 18.0692 30.4625 17.9083 30.4821 17.7383L30.5787 17.21L30.6562 16.7829L31.4129 12.6733H33.0221L32.7896 13.9092H33.6233L33.3904 15.2188H32.5571L32.1304 17.4646C32.1108 17.5629 32.1108 17.6367 32.1108 17.6875C32.1108 17.9663 32.2858 18.0854 32.6733 18.0854C32.8475 18.0854 32.9837 18.0692 33.0996 18.0346L32.8871 19.2279Z" fill="white"/>
<path fill-rule="evenodd" clip-rule="evenodd" d="M37.0554 15.4546L37.0171 15.2854L37.3467 14.4421C37.2688 14.4337 37.23 14.4317 37.23 14.4262C37.1334 14.4075 37.0946 14.3971 37.075 14.3971C37.0242 14.3864 36.9723 14.382 36.9204 14.3837C36.3775 14.3837 36.0088 14.62 35.5046 15.2562L35.6796 14.2992H33.9921L33.0034 19.6733H34.6129C34.8259 18.44 34.9234 17.7383 35.0588 17.1546C35.2721 16.1867 35.9896 15.7462 36.5129 15.8446C36.5713 15.8554 36.61 15.8554 36.6875 15.8846L36.7842 15.9212L37.0554 15.4546Z" fill="#231F20"/>
<path fill-rule="evenodd" clip-rule="evenodd" d="M37.6179 13.9542C37.4821 13.9008 37.4629 13.9008 37.4438 13.8958C37.3654 13.8771 37.3075 13.8667 37.3075 13.8638C37.2497 13.8555 37.1914 13.8512 37.1329 13.8508C36.6096 13.8508 36.2221 14.0892 35.7175 14.7258L35.8729 13.9092H34.3992L33.41 19.2913H35.0388C35.6204 16.0008 35.8721 15.4233 36.6484 15.4233C36.7067 15.4233 36.7646 15.4283 36.8421 15.4363L37.0363 15.4758L37.6179 13.9542ZM26.4492 15.6117C26.4492 16.29 26.8367 16.7596 27.7096 17.1121C28.3688 17.38 28.4659 17.4596 28.4659 17.7063C28.4659 18.04 28.175 18.1913 27.535 18.1913C27.0309 18.1913 26.585 18.1246 26.0613 17.9788L25.8288 19.2204L25.9063 19.2329L26.1971 19.2858C26.2938 19.305 26.4496 19.3204 26.6429 19.3342C27.0304 19.3633 27.3217 19.3788 27.535 19.3788C29.28 19.3788 30.075 18.8113 30.075 17.5838C30.075 16.8442 29.7459 16.4121 28.9117 16.0858C28.2329 15.8125 28.155 15.7517 28.155 15.4996C28.155 15.2104 28.4267 15.0621 28.95 15.0621C29.2792 15.0621 29.7063 15.0913 30.1329 15.1417L30.3654 13.8958C29.9388 13.8375 29.2992 13.7896 28.9113 13.7896C27.0892 13.7896 26.4492 14.6171 26.4492 15.6117ZM18.8488 16.8946C18.7264 16.88 18.6033 16.8731 18.48 16.8738C17.5688 16.8738 17.1034 17.1488 17.1034 17.6925C17.1034 18.0267 17.3167 18.2413 17.685 18.2413C18.3442 18.2413 18.81 17.69 18.8488 16.8946ZM20.0309 19.2913H18.6738L18.7125 18.7346C18.3054 19.1771 17.7434 19.3842 17.0059 19.3842C16.1334 19.3842 15.5321 18.7846 15.5321 17.915C15.5321 16.605 16.5796 15.8392 18.3821 15.8392C18.5571 15.8392 18.7896 15.8546 19.0417 15.8813C19.0804 15.7038 19.0996 15.6296 19.0996 15.5313C19.0996 15.1763 18.8088 15.0438 18.0525 15.0438C17.5871 15.0438 17.0634 15.0992 16.7146 15.1921L16.4817 15.2504L16.3463 15.2854L16.5596 14.0733C17.3738 13.8667 17.8971 13.79 18.4984 13.79C19.8942 13.79 20.6317 14.3358 20.6317 15.3675C20.6317 15.6325 20.6121 15.8342 20.515 16.4333L20.1659 18.345L20.1079 18.6867L20.0692 18.96L20.0496 19.1454L20.0309 19.2913ZM24.4909 15.9746V15.6988C24.4909 15.2613 24.2196 15.0067 23.7346 15.0067C23.2113 15.0067 22.8429 15.3483 22.6875 15.9717L24.4909 15.9746ZM25.3442 19.1775C24.8013 19.3233 24.2584 19.395 23.6959 19.395C21.8734 19.395 20.9229 18.5675 20.9229 16.9825C20.9229 15.1367 22.125 13.7767 23.7538 13.7767C25.0917 13.7767 25.9446 14.5375 25.9446 15.7308C25.9446 16.1283 25.8863 16.5154 25.7504 17.0613H22.5321C22.5125 17.1438 22.5125 17.1808 22.5125 17.2308C22.5125 17.8542 22.9971 18.1725 23.9279 18.1725C24.5096 18.1725 25.0334 18.0663 25.6146 17.8304L25.3442 19.1775ZM40.9917 16.1625C40.9917 15.6 40.7592 15.0675 40.1 15.0675C39.2667 15.0675 38.7625 16.0483 38.7625 16.9129C38.7625 17.6446 39.1117 18.1354 39.6934 18.1246C40.0425 18.1246 40.7984 17.6446 40.9342 16.8067C40.9725 16.6104 40.9917 16.3958 40.9917 16.1625ZM42.6792 16.8521C42.4267 18.6417 41.1854 19.4367 39.5184 19.4367C37.6763 19.4367 36.9392 18.3204 36.9392 16.955C36.9392 15.0488 38.1996 13.755 40.1392 13.755C41.8254 13.755 42.7179 14.8183 42.7179 16.1838C42.7179 16.5175 42.7184 16.5392 42.6792 16.8521Z" fill="white"/>
</g>
<defs>
<clipPath id="clip0_163_6">
<rect width="50" height="31.6667" fill="white"/>
</clipPath>
</defs>
</svg>
