<svg width="27" height="29" viewBox="0 0 27 29" fill="none" xmlns="http://www.w3.org/2000/svg">
<g filter="url(#filter0_d_6_70)">
<g filter="url(#filter1_d_6_70)">
<circle cx="13" cy="13" r="7.25" stroke="#334155" stroke-width="1.5"/>
</g>
<path fill-rule="evenodd" clip-rule="evenodd" d="M14.9708 10.4474C14.4203 11.0328 13.786 11.5395 13.0873 11.9522C13.0437 11.9831 12.9913 12.0005 12.9372 12.002C12.8831 12.0035 12.8298 11.9891 12.7844 11.9606C11.7879 11.3541 10.9032 10.5914 10.1667 9.70397C9.21313 8.54918 8.60607 7.26687 8.40039 6.03148C8.19472 4.79609 8.38668 3.57514 9.03238 2.59597C9.29477 2.19758 9.62471 1.84462 10.0084 1.55184C10.9184 0.850541 11.9555 0.48245 12.9951 0.489667C13.7195 0.508888 14.4275 0.702501 15.0547 1.05291C15.6819 1.40332 16.2084 1.89942 16.5863 2.49612C17.2806 3.5992 17.4302 5.0066 17.1261 6.43205C16.7886 7.92991 16.0448 9.31436 14.9708 10.4438V10.4474ZM12.7981 2.71626C13.239 2.71626 13.67 2.84243 14.0365 3.07882C14.4031 3.3152 14.6887 3.65119 14.8574 4.04426C15.026 4.43734 15.0701 4.86986 14.984 5.28711C14.8979 5.70436 14.6855 6.08759 14.3737 6.38834C14.0619 6.68909 13.6646 6.89384 13.2322 6.97669C12.7998 7.05954 12.3516 7.01678 11.9444 6.85381C11.5371 6.69083 11.1891 6.41497 10.9444 6.06111C10.6996 5.70726 10.5691 5.2913 10.5693 4.86586C10.5693 4.58347 10.627 4.30385 10.739 4.04297C10.851 3.78209 11.0152 3.54506 11.2222 3.34544C11.4292 3.14581 11.6749 2.9875 11.9453 2.87954C12.2157 2.77158 12.5055 2.7161 12.7981 2.71626Z" fill="#EF4136"/>
<path d="M12.7981 2.71626C13.239 2.71626 13.67 2.84243 14.0365 3.07882C14.4031 3.3152 14.6887 3.65119 14.8574 4.04426C15.026 4.43734 15.0701 4.86986 14.984 5.28711C14.8979 5.70436 14.6855 6.08759 14.3737 6.38834C14.0619 6.68909 13.6646 6.89384 13.2322 6.97669C12.7998 7.05954 12.3516 7.01678 11.9444 6.85381C11.5371 6.69083 11.1891 6.41497 10.9444 6.06111C10.6996 5.70726 10.5691 5.2913 10.5693 4.86586C10.5693 4.58347 10.627 4.30385 10.739 4.04297C10.851 3.78209 11.0152 3.54506 11.2222 3.34544C11.4292 3.14581 11.6749 2.9875 11.9453 2.87954C12.2157 2.77158 12.5055 2.7161 12.7981 2.71626Z" fill="white"/>
<path fill-rule="evenodd" clip-rule="evenodd" d="M7.15489 18.9604C6.76162 19.3506 6.30862 19.6885 5.80953 19.9636C5.77836 19.9842 5.74097 19.9958 5.70232 19.9968C5.66368 19.9978 5.62561 19.9882 5.59317 19.9692C4.88138 19.5649 4.24944 19.0564 3.72338 18.4648C3.04224 17.6949 2.60863 16.84 2.46172 16.0165C2.31481 15.1929 2.45193 14.3789 2.91314 13.7261C3.10056 13.4605 3.33623 13.2252 3.6103 13.03C4.26028 12.5625 5.00107 12.3171 5.74364 12.3219C6.2611 12.3347 6.7668 12.4638 7.21478 12.6974C7.66277 12.931 8.03884 13.2617 8.30882 13.6595C8.80476 14.3949 8.9116 15.3332 8.69435 16.2835C8.45328 17.2821 7.92201 18.205 7.15489 18.958V18.9604ZM5.60297 13.8063C5.91787 13.8063 6.2257 13.8904 6.48752 14.048C6.74934 14.2056 6.95339 14.4296 7.07386 14.6916C7.19433 14.9537 7.2258 15.242 7.1643 15.5202C7.1028 15.7984 6.95109 16.0539 6.72836 16.2544C6.50562 16.4549 6.22188 16.5914 5.913 16.6466C5.60413 16.7018 5.284 16.6733 4.99312 16.5647C4.70224 16.456 4.45366 16.2721 4.27884 16.0362C4.10402 15.8003 4.0108 15.523 4.01097 15.2394C4.01097 15.0511 4.05216 14.8647 4.13217 14.6908C4.21219 14.5169 4.32947 14.3588 4.47731 14.2258C4.62515 14.0927 4.80066 13.9871 4.9938 13.9152C5.18695 13.8432 5.39394 13.8062 5.60297 13.8063Z" fill="#EF4136"/>
<path d="M5.60297 13.8063C5.91787 13.8063 6.2257 13.8904 6.48752 14.048C6.74934 14.2056 6.95339 14.4296 7.07386 14.6916C7.19433 14.9537 7.2258 15.242 7.1643 15.5202C7.1028 15.7984 6.95109 16.0539 6.72836 16.2544C6.50562 16.4549 6.22188 16.5914 5.913 16.6466C5.60413 16.7018 5.284 16.6733 4.99312 16.5647C4.70224 16.456 4.45366 16.2721 4.27884 16.0362C4.10402 15.8003 4.0108 15.523 4.01097 15.2394C4.01097 15.0511 4.05216 14.8647 4.13217 14.6908C4.21219 14.5169 4.32947 14.3588 4.47731 14.2258C4.62515 14.0927 4.80066 13.9871 4.9938 13.9152C5.18695 13.8432 5.39394 13.8062 5.60297 13.8063Z" fill="white"/>
<path fill-rule="evenodd" clip-rule="evenodd" d="M21.3537 18.9604C20.9604 19.3506 20.5074 19.6885 20.0083 19.9636C19.9771 19.9842 19.9397 19.9958 19.9011 19.9968C19.8624 19.9978 19.8244 19.9882 19.7919 19.9692C19.0801 19.5649 18.4482 19.0564 17.9221 18.4648C17.241 17.6949 16.8074 16.84 16.6605 16.0165C16.5136 15.1929 16.6507 14.3789 17.1119 13.7261C17.2993 13.4605 17.535 13.2252 17.8091 13.03C18.459 12.5625 19.1998 12.3171 19.9424 12.3219C20.4599 12.3347 20.9656 12.4638 21.4135 12.6974C21.8615 12.931 22.2376 13.2617 22.5076 13.6595C23.0035 14.3949 23.1104 15.3332 22.8931 16.2835C22.652 17.2821 22.1208 18.205 21.3537 18.958V18.9604ZM19.8017 13.8063C20.1166 13.8063 20.4245 13.8904 20.6863 14.048C20.9481 14.2056 21.1522 14.4296 21.2726 14.6916C21.3931 14.9537 21.4246 15.242 21.3631 15.5202C21.3016 15.7984 21.1499 16.0539 20.9271 16.2544C20.7044 16.4549 20.4206 16.5914 20.1118 16.6466C19.8029 16.7018 19.4828 16.6733 19.1919 16.5647C18.901 16.456 18.6524 16.2721 18.4776 16.0362C18.3028 15.8003 18.2096 15.523 18.2097 15.2394C18.2097 15.0511 18.2509 14.8647 18.3309 14.6908C18.411 14.5169 18.5282 14.3588 18.6761 14.2258C18.8239 14.0927 18.9994 13.9871 19.1926 13.9152C19.3857 13.8432 19.5927 13.8062 19.8017 13.8063Z" fill="#EF4136"/>
<path d="M19.8017 13.8063C20.1166 13.8063 20.4245 13.8904 20.6863 14.048C20.9481 14.2056 21.1522 14.4296 21.2726 14.6916C21.3931 14.9537 21.4246 15.242 21.3631 15.5202C21.3016 15.7984 21.1499 16.0539 20.9271 16.2544C20.7044 16.4549 20.4206 16.5914 20.1118 16.6466C19.8029 16.7018 19.4828 16.6733 19.1919 16.5647C18.901 16.456 18.6524 16.2721 18.4776 16.0362C18.3028 15.8003 18.2096 15.523 18.2097 15.2394C18.2097 15.0511 18.2509 14.8647 18.3309 14.6908C18.411 14.5169 18.5282 14.3588 18.6761 14.2258C18.8239 14.0927 18.9994 13.9871 19.1926 13.9152C19.3857 13.8432 19.5927 13.8062 19.8017 13.8063Z" fill="white"/>
</g>
<defs>
<filter id="filter0_d_6_70" x="0.405403" y="0.489563" width="24.5946" height="24.5104" filterUnits="userSpaceOnUse" color-interpolation-filters="sRGB">
<feFlood flood-opacity="0" result="BackgroundImageFix"/>
<feColorMatrix in="SourceAlpha" type="matrix" values="0 0 0 0 0 0 0 0 0 0 0 0 0 0 0 0 0 0 127 0" result="hardAlpha"/>
<feOffset dy="2"/>
<feGaussianBlur stdDeviation="1"/>
<feColorMatrix type="matrix" values="0 0 0 0 0 0 0 0 0 0 0 0 0 0 0 0 0 0 0.25 0"/>
<feBlend mode="normal" in2="BackgroundImageFix" result="effect1_dropShadow_6_70"/>
<feBlend mode="normal" in="SourceGraphic" in2="effect1_dropShadow_6_70" result="shape"/>
</filter>
<filter id="filter1_d_6_70" x="3" y="5" width="24" height="24" filterUnits="userSpaceOnUse" color-interpolation-filters="sRGB">
<feFlood flood-opacity="0" result="BackgroundImageFix"/>
<feColorMatrix in="SourceAlpha" type="matrix" values="0 0 0 0 0 0 0 0 0 0 0 0 0 0 0 0 0 0 127 0" result="hardAlpha"/>
<feOffset dx="2" dy="4"/>
<feGaussianBlur stdDeviation="2"/>
<feColorMatrix type="matrix" values="0 0 0 0 0 0 0 0 0 0 0 0 0 0 0 0 0 0 0.25 0"/>
<feBlend mode="normal" in2="BackgroundImageFix" result="effect1_dropShadow_6_70"/>
<feBlend mode="normal" in="SourceGraphic" in2="effect1_dropShadow_6_70" result="shape"/>
</filter>
</defs>
</svg>
