<svg width="50" height="32" viewBox="0 0 50 32" fill="none" xmlns="http://www.w3.org/2000/svg">
<g clip-path="url(#clip0_163_20)">
<path fill-rule="evenodd" clip-rule="evenodd" d="M46.6662 0H3.33333C1.4925 0 0 1.49583 0 3.33667V28.33C0 30.1729 1.49625 31.6667 3.33375 31.6667H46.6667C48.5079 31.6667 50.0004 30.1708 50.0004 28.33V3.33667C50 1.49375 48.5037 0 46.6662 0Z" fill="#F4F4F4"/>
<path fill-rule="evenodd" clip-rule="evenodd" d="M47.0091 10.0433H45.6962L45.6941 10.0438H45.6933C45.3929 10.0438 45.0879 10.2679 45.0024 10.5529C44.9991 10.5646 44.9933 10.5754 44.9904 10.5875L44.9049 10.9671L43.1012 18.9283C43.0595 19.1079 43.0316 19.2254 43.0233 19.2558L43.027 19.26C42.9645 19.5383 43.1362 19.7683 43.4183 19.7946L43.422 19.7996H44.7845C45.0833 19.7996 45.3862 19.5775 45.4741 19.2958C45.4783 19.2825 45.4849 19.2696 45.4883 19.2558L47.4558 10.5871L47.4529 10.5863C47.5195 10.2896 47.3237 10.0433 47.0091 10.0433ZM40.2745 17.8675C40.0908 17.9797 39.8981 18.0765 39.6983 18.1567C39.4274 18.2629 39.1704 18.3188 38.9329 18.3188C38.5679 18.3188 38.2879 18.2688 38.0983 18.1613C37.9083 18.0592 37.8091 17.8821 37.812 17.6288C37.812 17.3358 37.8816 17.1088 38.0249 16.9308C38.1699 16.7596 38.3845 16.6217 38.6512 16.5183C38.9162 16.4308 39.242 16.3592 39.6183 16.3075C39.9529 16.2663 40.6145 16.1921 40.6991 16.1917C40.7837 16.1908 40.8399 16.1458 40.8024 16.365C40.7858 16.4608 40.5945 17.2242 40.507 17.5713C40.4816 17.6754 40.3395 17.8271 40.2745 17.8675ZM42.8704 12.5008C42.3137 12.1975 41.442 12.0446 40.2495 12.0446C39.6595 12.0446 39.067 12.0904 38.4724 12.1808C38.0358 12.2458 37.9908 12.2567 37.7195 12.3142C37.1616 12.4321 37.0758 12.9763 37.0758 12.9763L36.8966 13.6938C36.7949 14.1529 37.0633 14.1338 37.1829 14.0979C37.4266 14.0267 37.5587 13.9554 38.0554 13.8458C38.5304 13.7408 39.0324 13.6625 39.4329 13.6654C40.0204 13.6654 40.4666 13.7279 40.7637 13.8488C41.0608 13.975 41.2079 14.1896 41.2079 14.4971C41.2087 14.57 41.2108 14.6388 41.1837 14.6996C41.1591 14.7554 41.1124 14.81 40.972 14.8288C40.1337 14.8771 39.532 14.9513 38.8074 15.0542C38.0929 15.1525 37.467 15.3204 36.9445 15.5529C36.387 15.7938 35.9695 16.1158 35.6824 16.5242C35.4024 16.9342 35.2616 17.4308 35.2616 18.0158C35.2616 18.5692 35.4654 19.02 35.8599 19.37C36.2599 19.7158 36.7791 19.8867 37.4079 19.8867C37.8008 19.8842 38.1083 19.8567 38.3287 19.8033C38.5702 19.7434 38.8067 19.6644 39.0358 19.5671C39.2233 19.4908 39.4262 19.3804 39.6399 19.2417C39.8545 19.1025 40.0024 19.0038 40.1929 18.8825L40.1999 18.8938L40.1462 19.1238C40.1462 19.1263 40.1429 19.1271 40.1429 19.1296L40.1445 19.1338C40.0833 19.4108 40.2545 19.6413 40.5362 19.6683L40.5395 19.6733H40.5645L40.5654 19.6746C40.7529 19.6746 41.3945 19.6742 41.6945 19.6733H41.9041C41.9179 19.6733 41.9195 19.6692 41.9249 19.6658C42.2124 19.6317 42.4883 19.4033 42.5533 19.1296L43.6249 14.625C43.6499 14.5188 43.6691 14.3963 43.6808 14.2554C43.6941 14.1138 43.7099 13.9963 43.7054 13.9117C43.7079 13.2742 43.4262 12.8033 42.8708 12.5L42.8704 12.5008ZM36.4174 11.4746C36.2345 11.1279 35.9587 10.8492 35.6091 10.6317C35.2512 10.415 34.8258 10.2638 34.3333 10.1758C33.8462 10.0925 33.267 10.045 32.6074 10.0433L29.537 10.045C29.2212 10.0504 28.9108 10.2921 28.8379 10.5896L26.7737 19.3367C26.6987 19.6342 26.9037 19.8817 27.2141 19.88L28.6874 19.8775C28.9999 19.88 29.3179 19.6342 29.3916 19.3367L29.8899 17.2142C29.9595 16.9167 30.2774 16.6675 30.5949 16.6717H31.0137C32.8104 16.6717 34.2037 16.3125 35.2012 15.5967C36.1962 14.8775 36.697 13.9342 36.697 12.7608C36.6941 12.2483 36.6041 11.8171 36.4174 11.4746ZM33.2499 14.3354C32.8104 14.6467 32.1933 14.8029 31.3991 14.8029H31.0341C30.7183 14.8067 30.5141 14.5579 30.5891 14.2596L31.0291 12.4033C31.0949 12.1096 31.4154 11.8596 31.727 11.8621L32.2091 11.8596C32.7724 11.8621 33.1937 11.9538 33.4845 12.1363C33.7704 12.3208 33.9095 12.6071 33.9116 12.9883C33.9124 13.5696 33.6916 14.0167 33.2499 14.3354Z" fill="#2C97DE"/>
<path fill-rule="evenodd" clip-rule="evenodd" d="M26.0875 12.0446C25.8084 12.0446 25.4417 12.2663 25.2679 12.5342C25.2679 12.5342 23.3979 15.675 23.2142 15.9888C23.1142 16.1575 23.0134 16.0504 22.9967 15.9875C22.9829 15.9113 22.4171 12.555 22.4171 12.555C22.3534 12.2846 22.065 12.0525 21.7046 12.0538L20.5388 12.0554C20.2579 12.0554 20.0825 12.2763 20.145 12.5429C20.145 12.5429 21.0367 17.4921 21.21 18.6563C21.2967 19.3 21.2013 19.4142 21.2013 19.4142L20.0454 21.3879C19.8763 21.6558 19.9692 21.875 20.2488 21.875L21.6 21.8738C21.8796 21.8738 22.2504 21.6558 22.4167 21.3875L27.6154 12.7742C27.6154 12.7742 28.1125 12.0383 27.6538 12.045C27.3413 12.0492 26.0879 12.045 26.0879 12.045L26.0875 12.0446ZM16.3288 17.8675C16.1451 17.9795 15.9525 18.0761 15.7529 18.1563C15.4821 18.2621 15.2238 18.3188 14.9867 18.3188C14.6229 18.3188 14.3421 18.2679 14.1525 18.1613C13.9629 18.0588 13.8629 17.8821 13.8663 17.6279C13.8663 17.3363 13.9363 17.1083 14.0796 16.9304C14.2242 16.7588 14.4379 16.6208 14.7046 16.5179C14.9704 16.4304 15.2975 16.3592 15.6725 16.3075C16.0071 16.2663 16.6696 16.1925 16.7538 16.1908C16.8379 16.1908 16.8942 16.145 16.8567 16.3646C16.84 16.46 16.6492 17.2242 16.5613 17.5713C16.535 17.6754 16.3929 17.8271 16.3288 17.8675ZM18.925 12.5004C18.3679 12.1975 17.4967 12.0446 16.3042 12.0446C15.7142 12.0446 15.1217 12.0904 14.5267 12.1804C14.0892 12.245 14.0454 12.2563 13.7742 12.3138C13.2159 12.4321 13.13 12.9758 13.13 12.9758L12.9509 13.6938C12.8496 14.1521 13.1184 14.1333 13.2375 14.0979C13.4804 14.0263 13.6134 13.9554 14.11 13.8454C14.5846 13.7408 15.0871 13.6625 15.4871 13.665C16.0746 13.665 16.5209 13.7275 16.8179 13.8483C17.115 13.9746 17.2613 14.19 17.2613 14.4967C17.2634 14.57 17.265 14.6392 17.2384 14.6988C17.2134 14.7554 17.1663 14.8096 17.0259 14.8279C16.1884 14.8771 15.5871 14.9513 14.8617 15.0542C14.1467 15.1525 13.5213 15.3204 12.9984 15.5525C12.4409 15.7933 12.0242 16.1163 11.7375 16.5242C11.4567 16.9342 11.3163 17.4308 11.3154 18.0158C11.3154 18.5688 11.5196 19.02 11.9142 19.37C12.3142 19.7158 12.8334 19.8867 13.4621 19.8867C13.855 19.8842 14.1621 19.8563 14.3829 19.8033C14.6013 19.7492 14.8392 19.6733 15.0896 19.5671C15.2779 19.4908 15.48 19.3796 15.6942 19.2413C15.9079 19.1025 16.0567 19.0038 16.2484 18.8825L16.2538 18.8938L16.2004 19.1233C16.2 19.1254 16.1971 19.1271 16.1971 19.1296L16.1992 19.1333C16.1379 19.4113 16.3084 19.6413 16.5909 19.6679L16.5942 19.6733H16.6188L16.6192 19.675L17.7484 19.6733H17.9584C17.9725 19.6733 17.9742 19.6688 17.9788 19.6658C18.2671 19.6304 18.5421 19.4025 18.6079 19.1296L19.6792 14.625C19.7034 14.5192 19.7229 14.3967 19.7338 14.2563C19.7479 14.1133 19.7638 13.9967 19.7596 13.9125C19.7621 13.2746 19.4804 12.8033 18.9246 12.5L18.925 12.5004ZM12.2217 11.4746C12.0388 11.1279 11.7629 10.8492 11.4134 10.6317C11.0554 10.415 10.63 10.2638 10.1375 10.1758C9.65044 10.0925 9.07128 10.045 8.41169 10.0433L5.34128 10.045C5.02544 10.0504 4.71503 10.2921 4.64211 10.5896L2.57753 19.3367C2.50253 19.6342 2.70753 19.8817 3.01794 19.88L4.49128 19.8775C4.80378 19.88 5.12211 19.6342 5.19544 19.3367L5.69378 17.2142C5.76336 16.9167 6.08128 16.6675 6.39878 16.6717H6.81753C8.61419 16.6717 10.0075 16.3125 11.005 15.5967C12.0004 14.8775 12.5009 13.9342 12.5009 12.7608C12.4979 12.2483 12.4084 11.8171 12.2217 11.4746ZM9.05461 14.3354C8.61461 14.6467 7.99753 14.8029 7.20336 14.8029H6.83836C6.52253 14.8067 6.31836 14.5579 6.39336 14.2596L6.83378 12.4033C6.89919 12.1096 7.21961 11.8596 7.53128 11.8621L8.01378 11.8596C8.57669 11.8621 8.99794 11.9538 9.28878 12.1363C9.57461 12.3208 9.71378 12.6071 9.71586 12.9883C9.71711 13.5696 9.49628 14.0167 9.05461 14.3354Z" fill="#265697"/>
</g>
<defs>
<clipPath id="clip0_163_20">
<rect width="50" height="31.6667" fill="white"/>
</clipPath>
</defs>
</svg>
