<svg width="50" height="32" viewBox="0 0 50 32" fill="none" xmlns="http://www.w3.org/2000/svg">
<g clip-path="url(#clip0_163_31)">
<path fill-rule="evenodd" clip-rule="evenodd" d="M46.6662 0H3.33333C1.4925 0 0 1.49583 0 3.33667V28.33C0 30.1729 1.49625 31.6667 3.33375 31.6667H46.6667C48.5079 31.6667 50.0004 30.1708 50.0004 28.33V3.33667C50 1.49375 48.5037 0 46.6662 0Z" fill="#9C56B8"/>
<path fill-rule="evenodd" clip-rule="evenodd" d="M34.0709 12.4717C35.0013 12.4717 35.7555 11.7317 35.7555 10.8196C35.7555 9.90707 35.0013 9.16666 34.0705 9.16666C33.1413 9.16666 32.3871 9.90707 32.3871 10.8196C32.3871 11.7321 33.1417 12.4717 34.0709 12.4717ZM21.1659 13.3633C21.09 13.5508 20.5425 15.0675 19.2192 16.6392V9.91832L15.693 10.6025V22.7842H19.2192V19.0187C20.2405 20.5217 20.745 22.7842 20.745 22.7842H24.9688C24.5509 21.08 22.723 17.9383 22.723 17.9383C24.3634 15.8975 25.0838 13.7237 25.1984 13.3633H21.1659ZM30.4367 13.2362C27.2784 13.3362 25.6746 14.7262 25.6746 17.49V22.7842H29.1205V18.4667C29.1205 16.8117 29.3413 16.1025 31.343 16.035V13.285C31.0059 13.2146 30.4367 13.2362 30.4367 13.2362ZM9.77837 14.705C9.34671 14.6771 8.34671 14.6137 8.34671 13.7304C8.34671 12.6646 9.78671 12.6646 10.3267 12.6646C11.2759 12.6646 12.5059 12.9396 13.3838 13.1979C13.3838 13.1979 13.8738 13.3671 14.2905 13.5408L14.3292 13.5508V10.6321L14.2763 10.6167C13.2396 10.2608 12.0346 9.91832 9.80046 9.91832C5.94837 9.91832 4.58337 12.1208 4.58337 14.0067C4.58337 15.0942 5.05837 17.6525 9.47004 17.9479C9.84421 17.9704 10.8367 18.0262 10.8367 18.9396C10.8367 19.6929 10.0242 20.1371 8.65754 20.1371C7.15962 20.1371 5.70671 19.7621 4.82421 19.4071V22.4133C6.14504 22.7533 7.63462 22.9229 9.38004 22.9229C13.1467 22.9229 14.8334 20.8396 14.8334 18.775C14.8334 16.4342 12.9455 14.9133 9.77837 14.705ZM32.3625 22.7842H35.7805V13.3742H32.3625V22.7842ZM42.2163 10.5183V22.7842H45.6346V9.91832L42.2163 10.5183ZM37.2284 10.5183L40.6434 9.91832V22.7842H37.2284V10.5183Z" fill="white"/>
</g>
<defs>
<clipPath id="clip0_163_31">
<rect width="50" height="31.6667" fill="white"/>
</clipPath>
</defs>
</svg>
