<svg width="50" height="32" viewBox="0 0 50 32" fill="none" xmlns="http://www.w3.org/2000/svg">
<g clip-path="url(#clip0_163_2)">
<path fill-rule="evenodd" clip-rule="evenodd" d="M46.6662 0H3.33333C1.4925 0 0 1.49583 0 3.33667V28.33C0 30.1729 1.49625 31.6667 3.33375 31.6667H46.6667C48.5079 31.6667 50.0004 30.1708 50.0004 28.33V3.33667C50 1.49375 48.5037 0 46.6662 0Z" fill="#2C97DE"/>
<path fill-rule="evenodd" clip-rule="evenodd" d="M39.9792 16.8413L39.98 16.8633C40.0883 19.6392 43.8862 18.1017 44.2112 17.8942L44.5112 19.915C44.1108 20.2267 43.0067 20.6729 41.2537 20.6729C38.3567 20.6729 37.0942 18.8329 37.0942 15.9354C37.0942 13.0375 38.7025 11.1979 40.9279 11.1979C43.8604 11.1979 44.7917 13.3446 44.7917 15.5754V16.8413H39.9792ZM39.9587 15.0888C40.0146 14.0892 40.2546 13.1729 41.045 13.1729C41.9646 13.1729 42.0875 14.5467 42.0454 15.0746L42.0675 15.0888H39.9587ZM31.2004 12.2608C31.92 11.5346 32.6933 11.1979 33.4525 11.1979C35.9729 11.1979 36.5021 13.5458 36.5021 15.98C36.5021 18.5267 35.2692 20.6729 32.6533 20.6729C32.1171 20.6729 31.6992 20.5863 31.4096 20.4471V23.3758L28.5379 23.8508V11.3463H31.0546L31.2004 12.2608ZM31.3971 13.9725C32.175 13.3154 33.59 12.6358 33.59 15.7888C33.59 18.805 32.1892 18.6829 31.4096 18.3088V14.6425C31.4096 14.3992 31.405 14.1758 31.3971 13.9725ZM25.9325 10.485C26.135 10.4847 26.3355 10.4446 26.5225 10.3668C26.7095 10.289 26.8793 10.1751 27.0223 10.0317C27.1653 9.88826 27.2786 9.71806 27.3558 9.53081C27.4329 9.34357 27.4725 9.14295 27.4721 8.94043C27.4725 8.7379 27.4329 8.53729 27.3558 8.35004C27.2786 8.1628 27.1653 7.99259 27.0223 7.84915C26.8793 7.70572 26.7095 7.59185 26.5225 7.51407C26.3355 7.43629 26.135 7.39612 25.9325 7.39584C25.73 7.39612 25.5295 7.43629 25.3425 7.51407C25.1555 7.59185 24.9857 7.70572 24.8427 7.84915C24.6997 7.99259 24.5864 8.1628 24.5092 8.35004C24.4321 8.53729 24.3925 8.7379 24.3929 8.94043C24.3925 9.14295 24.4321 9.34357 24.5092 9.53081C24.5864 9.71806 24.6997 9.88826 24.8427 10.0317C24.9857 10.1751 25.1555 10.289 25.3425 10.3668C25.5295 10.4446 25.73 10.4847 25.9325 10.485ZM24.4521 11.3463H27.4129V20.4946H24.4521V11.3463ZM18.7979 11.3463H21.3142L21.475 12.4458C21.475 12.4458 21.9425 10.9 23.7712 11.3142V13.9896C22.1108 13.8313 21.6692 14.5329 21.6692 14.6425V20.4946H18.7975V11.3463H18.7979ZM17.8208 20.4596V18.1779C16.5967 18.4688 16.1625 18.2817 16.1625 17.2513V13.5283H17.6596L17.9979 11.3754H16.1625V8.73251L13.6758 9.14834L13.3204 11.3754L12.4321 11.5117L12.1262 13.5283H13.3204V17.8513C13.2896 20.0388 14.6483 21.1575 17.8208 20.4596ZM9.18541 18.1742C9.49791 17.31 8.29292 17.0579 7.60083 16.7813C5.51833 15.9479 5.4525 15.2921 5.355 14.0021C5.25833 12.7125 6.005 11.9671 6.89917 11.5371C8.28792 10.8704 10.9804 11.3746 11.5242 11.8408L11.2204 14.0025C8.43958 12.8025 8.12666 13.5175 8.06166 13.7675C7.80208 14.7683 10.8837 14.7896 11.6675 16.4133C12.0825 17.2725 12.1479 18.7383 11.295 19.6479C9.45458 21.6104 5.73375 20.2354 5.23792 19.8813L5.59333 17.68C5.99958 18.0817 8.87333 19.0383 9.18541 18.1742Z" fill="white"/>
</g>
<defs>
<clipPath id="clip0_163_2">
<rect width="50" height="31.6667" fill="white"/>
</clipPath>
</defs>
</svg>
