<svg width="50" height="32" viewBox="0 0 50 32" fill="none" xmlns="http://www.w3.org/2000/svg">
<g clip-path="url(#clip0_163_35)">
<path fill-rule="evenodd" clip-rule="evenodd" d="M0 3.33667C0 1.49542 1.4925 0 3.33375 0H46.6667C48.5037 0 50 1.49375 50 3.33667V6.25H0V3.33667Z" fill="#227FBB"/>
<path fill-rule="evenodd" clip-rule="evenodd" d="M0 28.33C0 30.1729 1.49625 31.6667 3.33375 31.6667H46.6667C48.5079 31.6667 50.0004 30.1708 50.0004 28.33V25.4167H0V28.33Z" fill="#E87E04"/>
<path fill-rule="evenodd" clip-rule="evenodd" d="M0 6.25H50V25.4167H0V6.25Z" fill="#F4F4F4"/>
<path fill-rule="evenodd" clip-rule="evenodd" d="M34.8896 9.30708C34.1883 9.03833 33.09 8.75 31.7188 8.75C28.2225 8.75 25.76 10.5483 25.7388 13.1258C25.7192 15.0313 27.4971 16.0942 28.8388 16.7283C30.2163 17.3783 30.6792 17.7929 30.6725 18.3729C30.6642 19.2621 29.5725 19.6679 28.5558 19.6679C27.14 19.6679 26.3875 19.4671 25.2254 18.9721L24.7696 18.7613L24.2729 21.7296C25.0992 22.0996 26.6275 22.4204 28.2142 22.4371C31.9333 22.4371 34.3475 20.6592 34.375 17.9067C34.3883 16.3983 33.4459 15.2504 31.4046 14.3042C30.1679 13.6908 29.4104 13.2813 29.4188 12.6604C29.4188 12.1092 30.0596 11.5196 31.4446 11.5196C32.6017 11.5013 33.4396 11.7592 34.0929 12.0279L34.4096 12.1808L34.8896 9.30708ZM43.9621 8.99292H41.2279C40.3813 8.99292 39.7475 9.22917 39.3754 10.0929L34.1213 22.2442H37.8363C37.8363 22.2442 38.4438 20.6108 38.5809 20.2517C38.9871 20.2517 42.5963 20.2575 43.1121 20.2575C43.2179 20.7217 43.5425 22.2442 43.5425 22.2442H46.8259L43.9621 8.99292ZM39.5996 17.5396C39.8917 16.7758 41.0088 13.8329 41.0088 13.8329C40.9879 13.8683 41.2992 13.0654 41.4779 12.5675L41.7171 13.7108L42.5363 17.5396H39.5996ZM18.5209 22.24L20.7329 8.98042H24.2709L22.0575 22.24H18.5209ZM15.5534 8.99L12.0896 18.0321L11.7204 16.1946C11.0759 14.0767 9.06627 11.7813 6.82043 10.6321L9.98793 22.2288L13.7313 22.2246L19.3013 8.99H15.5534Z" fill="#227FBB"/>
<path fill-rule="evenodd" clip-rule="evenodd" d="M8.8762 8.98209H3.17078L3.12537 9.25792C7.56412 10.3554 10.5008 13.0079 11.7199 16.1946L10.4795 10.1013C10.2654 9.26167 9.64412 9.01125 8.87537 8.98209" fill="#E87E04"/>
</g>
<defs>
<clipPath id="clip0_163_35">
<rect width="50" height="31.6667" fill="white"/>
</clipPath>
</defs>
</svg>
